<svg xmlns="http://www.w3.org/2000/svg" viewBox="0 0 840.77 261.88"><defs><style>.a{font-size:123.44px;fill:#231f20;letter-spacing:0.05em;}.a,.h{font-family:AmericanTypewriter, American Typewriter;}.b{letter-spacing:0.04em;}.c{letter-spacing:0.02em;}.d{letter-spacing:0.05em;}.e{fill:#a63b2c;}.f{fill:none;}.g,.h{fill:#fff;}.g{stroke:#a73c2c;stroke-miterlimit:10;stroke-width:4px;}.h{font-size:120.07px;letter-spacing:0.05em;}</style></defs><title>alt-logo-red3</title><text class="a" transform="translate(289.38 103.13)">Anti<tspan class="b" x="283.04" y="0">q</tspan><tspan x="357.47" y="0">ue</tspan><tspan class="c"><tspan x="0" y="113.69">N</tspan><tspan class="d" x="96.53" y="113.69">etwork</tspan></tspan></text><path class="e" d="M259.94,45.77c-.21.31-21.54,32-21.54,57.26,0,12.22,4.77,22.54,9.81,33.46,5.54,12,11.28,24.42,11.28,40.32,0,17.12-8.84,32.54-24.88,43.46-18.17,12.37-44.25,18.64-77.51,18.64-15.23,0-21.63,8.12-21.89,8.46L131.65,252l-3.5-4.69c-.24-.31-6.63-8.43-21.86-8.43C35.94,238.91,3.9,203.07,3.9,169.79c0-16.07,5.8-26.7,11.41-37C20.29,123.71,25,115.1,25,103,25,77.79,3.65,46.08,3.44,45.77L1.66,43.14l31-40.41,3.18,1.44c35.07,15.88,66.58,15.94,93.67.2l2.21-1.29,2.21,1.29c27.1,15.74,58.61,15.68,93.67-.2l3.18-1.44,31,40.41Z"/><path class="f" d="M250.1,41.55,223.17,6.41c-33.61,15.23-67.47,17.57-97.69,0C95.26,24,61.4,21.64,27.79,6.41L.86,41.55s22.31,32.79,22.31,59.73S2.08,138.75,2.08,168s28.56,64.73,98,64.73c17.91,0,25.41,10.23,25.41,10.23s7.5-10.23,25.41-10.23c69.43,0,98-28.42,98-57.7s-21.09-46.85-21.09-73.78S250.1,41.55,250.1,41.55Z"/><path class="g" d="M242.65,83.12c6-19.44,17.94-37.12,18.1-37.35l1.79-2.63-31-40.41-3.17,1.44c-35.07,15.88-66.58,15.94-93.67.2L132.5,3.08l-2.21,1.29c-27.1,15.74-58.61,15.68-93.67-.2L33.43,2.73l-31,40.41,1.78,2.63C4.4,46,16.3,63.68,22.35,83.12a86.51,86.51,0,0,1,2.25,8.79A56.48,56.48,0,0,1,25.79,103c0,12.07-4.7,20.68-9.68,29.79-5.6,10.27-11.41,20.9-11.41,37,0,33.28,32,69.12,102.39,69.12,15.23,0,21.63,8.12,21.86,8.43l3.5,4.69,3.56-4.66c.27-.34,6.66-8.46,21.9-8.46,33.25,0,59.34-6.27,77.5-18.64,16-10.92,24.88-26.34,24.88-43.46,0-15.9-5.73-28.32-11.28-40.32-5-10.92-9.81-21.24-9.81-33.46a57.25,57.25,0,0,1,1.19-11.12A84,84,0,0,1,242.65,83.12Zm-1.61,57c5.39,11.66,10.46,22.66,10.46,36.64s-7.47,27-21,36.2c-16.45,11.2-41.54,17.11-72.56,17.11-13,0-21.17,4.9-25.41,8.44-4.25-3.54-12.46-8.44-25.41-8.44-64.32,0-93.6-31.27-93.6-60.33,0-13.83,5-23,10.33-32.76s10.75-19.69,10.75-34a63.15,63.15,0,0,0-1-11.12c-.25-1.47-.55-2.93-.89-4.4s-.72-2.93-1.14-4.39c-4.89-17.38-14.34-33.4-18.26-39.61L36.19,13.58c35.61,15.29,68,15.17,96.31-.37,28.33,15.54,60.7,15.66,96.31.37l22.94,29.93c-3.92,6.21-13.37,22.23-18.26,39.61-.41,1.46-.8,2.92-1.13,4.39s-.64,2.93-.9,4.4a64.11,64.11,0,0,0-1,11.12C230.42,117.18,235.81,128.87,241,140.17Z"/><line class="f" x1="21.11" y1="85.76" x2="229.26" y2="85.76"/><text class="h" transform="translate(68.21 154.65)">IA</text></svg>