<svg xmlns="http://www.w3.org/2000/svg" viewBox="0 0 986.12 325.7"><defs><style>.a{font-size:153.52px;fill:#231f20;letter-spacing:0.05em;}.a,.i{font-family:AmericanTypewriter, American Typewriter;}.b{letter-spacing:0.04em;}.c{letter-spacing:0.05em;}.d{letter-spacing:0.02em;}.e{letter-spacing:0.05em;}.f{fill:#a63b2c;}.g{fill:none;}.h,.i{fill:#fff;}.h{stroke:#a73c2c;stroke-miterlimit:10;stroke-width:4px;}.i{font-size:120.07px;letter-spacing:0.05em;}</style></defs><title>alt-logo-red3</title><text class="a" transform="translate(300.36 128.27)">Anti<tspan class="b" x="352.02" y="0">q</tspan><tspan class="c" x="444.59" y="0">ue</tspan><tspan class="d"><tspan x="0" y="141.4">N</tspan><tspan class="e" x="120.05" y="141.4">etwork</tspan></tspan></text><path class="f" d="M259.94,72.68c-.21.31-21.54,32-21.54,57.26,0,12.23,4.77,22.54,9.81,33.46,5.54,12,11.28,24.42,11.28,40.33,0,17.11-8.84,32.53-24.88,43.45-18.17,12.37-44.25,18.64-77.51,18.64-15.23,0-21.63,8.12-21.89,8.47l-3.56,4.65-3.5-4.69c-.24-.31-6.63-8.43-21.86-8.43C35.94,265.82,3.9,230,3.9,196.7c0-16.07,5.8-26.7,11.41-37,5-9.11,9.68-17.72,9.68-29.79C25,104.7,3.65,73,3.44,72.68L1.66,70.06l31-40.42,3.18,1.44C70.88,47,102.39,47,129.48,31.28L131.69,30l2.21,1.29C161,47,192.51,47,227.57,31.08l3.18-1.44,31,40.42Z"/><path class="g" d="M250.1,68.46,223.17,33.32c-33.61,15.23-67.47,17.57-97.69,0-30.22,17.57-64.08,15.23-97.69,0L.86,68.46s22.31,32.79,22.31,59.73S2.08,165.66,2.08,194.94s28.56,64.73,98,64.73c17.91,0,25.41,10.23,25.41,10.23s7.5-10.23,25.41-10.23c69.43,0,98-28.42,98-57.7s-21.09-46.85-21.09-73.78S250.1,68.46,250.1,68.46Z"/><path class="h" d="M242.65,110c6-19.44,17.94-37.12,18.1-37.35l1.79-2.62-31-40.42-3.17,1.44C193.31,47,161.8,47,134.71,31.28L132.5,30l-2.21,1.29C103.19,47,71.68,47,36.62,31.08l-3.19-1.44-31,40.42,1.78,2.62c.15.23,12.05,17.91,18.1,37.35a86.51,86.51,0,0,1,2.25,8.79,56.48,56.48,0,0,1,1.19,11.12c0,12.07-4.7,20.68-9.68,29.79C10.51,170,4.7,180.63,4.7,196.7c0,33.29,32,69.12,102.39,69.12,15.23,0,21.63,8.12,21.86,8.43l3.5,4.69,3.56-4.65c.27-.35,6.66-8.47,21.9-8.47,33.25,0,59.34-6.27,77.5-18.64,16-10.92,24.88-26.34,24.88-43.45,0-15.91-5.73-28.32-11.28-40.33-5-10.92-9.81-21.23-9.81-33.46a57.25,57.25,0,0,1,1.19-11.12A84,84,0,0,1,242.65,110ZM241,167.08c5.39,11.66,10.46,22.67,10.46,36.65s-7.47,27-21,36.19C214,251.12,188.93,257,157.91,257c-13,0-21.17,4.9-25.41,8.44C128.25,261.93,120,257,107.09,257c-64.32,0-93.6-31.27-93.6-60.33,0-13.83,5-23,10.33-32.76s10.75-19.69,10.75-34a63.24,63.24,0,0,0-1-11.12c-.25-1.47-.55-2.93-.89-4.39s-.72-2.94-1.14-4.4c-4.89-17.38-14.34-33.4-18.26-39.61L36.19,40.49c35.61,15.3,68,15.17,96.31-.37,28.33,15.54,60.7,15.67,96.31.37l22.94,29.93c-3.92,6.21-13.37,22.23-18.26,39.61-.41,1.46-.8,2.92-1.13,4.4s-.64,2.92-.9,4.39a64.21,64.21,0,0,0-1,11.12C230.42,144.1,235.81,155.78,241,167.08Z"/><line class="g" x1="21.11" y1="112.67" x2="229.26" y2="112.67"/><text class="i" transform="translate(68.21 181.56)">IA</text></svg>