<svg xmlns="http://www.w3.org/2000/svg" viewBox="0 0 296.53 284.25"><defs><style>.a{fill:#a63b2c;}.b{fill:none;}.c,.d,.g{fill:#fff;}.d{font-size:61.87px;letter-spacing:0.05em;}.d,.g{font-family:RobotoSlab-Bold, Roboto Slab;font-weight:700;}.e{letter-spacing:-0.03em;}.f{letter-spacing:0.05em;}.g{font-size:44.48px;letter-spacing:0.05em;}.h{letter-spacing:0.06em;}.i{letter-spacing:0.06em;}.j{letter-spacing:0.05em;}</style></defs><title>alt-logo-red_2</title><path class="a" d="M294.49,49.07c-.24.36-24.57,36.51-24.57,65.29,0,13.94,5.44,25.7,11.19,38.15,6.32,13.69,12.86,27.84,12.86,46,0,19.51-10.08,37.1-28.37,49.55-20.71,14.1-50.45,21.25-88.37,21.25-17.37,0-24.66,9.26-25,9.65l-4.06,5.31-4-5.35c-.27-.35-7.56-9.61-24.93-9.61-80.21,0-116.74-40.86-116.74-78.81,0-18.32,6.62-30.44,13-42.15,5.68-10.39,11-20.21,11-34C26.6,85.58,2.27,49.43,2,49.07l-2-3L35.31,0l3.63,1.64c40,18.11,75.91,18.18,106.8.23L148.26.4l2.52,1.47c30.89,18,66.82,17.88,106.8-.23L261.2,0l35.33,46.08Z"/><path class="b" d="M290.35,46.26,259.65,6.2c-38.32,17.36-76.93,20-111.39,0-34.46,20-73.07,17.36-111.39,0L6.17,46.26s25.44,37.39,25.44,68.1-24,42.73-24,76.12,32.56,73.8,111.73,73.8c20.41,0,29,11.66,29,11.66s8.56-11.66,29-11.66c79.17,0,111.73-32.41,111.73-65.79s-24-53.42-24-84.13S290.35,46.26,290.35,46.26Z"/><path class="a" d="M296.53,46.08,261.2,0l-3.62,1.64c-40,18.11-75.91,18.18-106.8.23L148.26.4l-2.52,1.47c-30.89,18-66.82,17.88-106.8-.23L35.31,0,0,46.08l2,3c.24.36,24.57,36.51,24.57,65.29,0,13.76-5.36,23.58-11,34-6.39,11.71-13,23.83-13,42.15,0,38,36.53,78.81,116.74,78.81,17.37,0,24.66,9.26,24.93,9.61l4,5.35,4.06-5.31c.3-.39,7.59-9.65,25-9.65,37.92,0,67.66-7.15,88.37-21.25C283.89,235.59,294,218,294,198.49c0-18.14-6.54-32.29-12.86-46-5.75-12.45-11.19-24.21-11.19-38.15,0-28.78,24.33-64.93,24.57-65.29ZM263.41,91.66c-.47,1.66-.91,3.33-1.29,5s-.73,3.34-1,5a72.48,72.48,0,0,0-1.19,12.68c0,16.14,6.15,29.46,12.11,42.35C278.16,170,284,182.55,284,198.49c0,16.09-8.52,30.75-24,41.27-18.76,12.77-47.37,19.51-82.74,19.51-14.77,0-24.13,5.58-29,9.62-4.84-4-14.2-9.62-29-9.62-73.33,0-106.72-35.66-106.72-68.79,0-15.77,5.72-26.25,11.78-37.35s12.26-22.45,12.26-38.77a72.48,72.48,0,0,0-1.19-12.68q-.44-2.5-1-5c-.38-1.68-.82-3.35-1.29-5C27.53,71.84,16.76,53.58,12.29,46.5L38.45,12.37C79.05,29.81,116,29.67,148.26,12c32.3,17.72,69.21,17.86,109.81.42L284.23,46.5C279.76,53.58,269,71.84,263.41,91.66Z"/><line class="b" x1="29.26" y1="96.67" x2="266.59" y2="96.67"/><rect class="c" x="15.66" y="91.66" width="264.52" height="10.02"/><text class="d" transform="translate(60.01 76.83)">IO<tspan class="e" x="71.47" y="0">W</tspan><tspan class="f" x="128.96" y="0">A</tspan></text><text class="g" transform="translate(37.89 165.45)">ANTIQUE</text><text class="g" transform="translate(25.44 213.31)">N<tspan class="h" x="36.58" y="0">E</tspan><tspan class="i" x="67.65" y="0">T</tspan><tspan class="j" x="100.1" y="0">WORK</tspan></text></svg>