<svg xmlns="http://www.w3.org/2000/svg" viewBox="0 0 296.53 284.25"><defs><style>.a{fill:#fff;}.b,.c,.f{fill:#231f20;}.c{font-size:61.87px;letter-spacing:0.05em;}.c,.f{font-family:RobotoSlab-Bold, Roboto Slab;font-weight:700;}.d{letter-spacing:-0.03em;}.e{letter-spacing:0.05em;}.f{font-size:44.48px;letter-spacing:0.05em;}.g{letter-spacing:0.06em;}.h{letter-spacing:0.06em;}.i{letter-spacing:0.05em;}</style></defs><title>alt-logo</title><path class="a" d="M290.36,46.26,259.65,6.2c-38.32,17.36-76.93,20-111.39,0-34.45,20-73.06,17.36-111.39,0L6.17,46.26s25.44,37.39,25.44,68.11-24,42.73-24,76.11,32.56,73.81,111.73,73.81c20.42,0,29,11.65,29,11.65s8.56-11.65,29-11.65c79.17,0,111.74-32.41,111.74-65.8s-24.05-53.41-24.05-84.12S290.36,46.26,290.36,46.26Z"/><path class="b" d="M148.21,284.25l-4-5.34c-.28-.36-7.56-9.62-24.94-9.62-80.2,0-116.74-40.85-116.74-78.81,0-18.32,6.62-30.43,13-42.15,5.67-10.39,11-20.21,11-34C26.6,85.58,2.28,49.44,2,49.08l-2-3L35.32,0l3.62,1.64c40,18.11,75.91,18.19,106.81.23L148.26.41l2.52,1.46c30.89,18,66.83,17.88,106.81-.23L261.21,0l35.32,46.09-2,3c-.25.36-24.57,36.5-24.57,65.29,0,13.93,5.43,25.69,11.18,38.14,6.33,13.69,12.86,27.84,12.86,46,0,19.51-10.07,37.11-28.36,49.56-20.72,14.1-50.45,21.24-88.38,21.24-17.37,0-24.66,9.26-25,9.66ZM12.3,46.5c6.17,9.77,24.32,40.82,24.32,67.87,0,16.31-6.24,27.72-12.26,38.76s-11.79,21.59-11.79,37.35c0,33.14,33.4,68.8,106.72,68.8,14.78,0,24.13,5.57,29,9.61,4.85-4,14.2-9.61,29-9.61,35.38,0,64-6.75,82.74-19.51,15.47-10.53,24-25.19,24-41.28,0-15.94-5.8-28.49-11.94-41.78-5.95-12.88-12.11-26.21-12.11-42.34,0-27.05,18.15-58.1,24.32-67.87L258.07,12.37c-40.6,17.44-77.51,17.3-109.81-.42-32.3,17.73-69.2,17.86-109.81.42Z"/><line class="a" x1="29.26" y1="96.68" x2="266.59" y2="96.68"/><rect class="b" x="29.26" y="91.67" width="237.33" height="10.02"/><text class="c" transform="translate(60.02 80.83)">IO<tspan class="d" x="71.47" y="0">W</tspan><tspan class="e" x="128.96" y="0">A</tspan></text><text class="f" transform="translate(37.9 165.45)">ANTIQUE</text><text class="f" transform="translate(25.44 213.32)">N<tspan class="g" x="36.58" y="0">E</tspan><tspan class="h" x="67.65" y="0">T</tspan><tspan class="i" x="100.1" y="0">WORK</tspan></text></svg>