<svg xmlns="http://www.w3.org/2000/svg" viewBox="0 0 301.46 290.05"><defs><style>.a{fill:#a63b2c;}.b{fill:none;}.c,.d,.g,.h{fill:#fff;}.c{stroke:#a73c2c;stroke-miterlimit:10;stroke-width:4px;}.d{font-size:61.87px;letter-spacing:0.05em;}.d,.g,.h{font-family:AmericanTypewriter, American Typewriter;}.e{letter-spacing:0.03em;}.f{letter-spacing:-0.02em;}.g,.h{font-size:42.67px;}.g{letter-spacing:0.05em;}.h{letter-spacing:0.05em;}.i{letter-spacing:0.03em;}</style></defs><title>alt-logo-red_5</title><path class="a" d="M297,51.55c-.24.36-24.57,36.51-24.57,65.29,0,13.94,5.44,25.7,11.19,38.15,6.32,13.69,12.86,27.84,12.86,46,0,19.51-10.08,37.1-28.37,49.55-20.71,14.1-50.45,21.25-88.37,21.25-17.37,0-24.66,9.26-25,9.65l-4.06,5.31-4-5.35c-.27-.35-7.56-9.61-24.93-9.61C41.55,271.77,5,230.91,5,193c0-18.32,6.62-30.44,13-42.15,5.68-10.39,11-20.21,11-34,0-28.78-24.33-64.93-24.57-65.29l-2-3L37.78,2.48l3.63,1.64c40,18.11,75.91,18.18,106.8.23l2.52-1.47,2.52,1.47c30.89,18,66.82,17.88,106.8-.23l3.62-1.64L299,48.56Z"/><path class="b" d="M292.82,48.73,262.11,8.67c-38.32,17.36-76.93,20-111.38,0-34.46,20-73.07,17.36-111.39,0L8.63,48.73s25.44,37.39,25.44,68.11S10,159.57,10,193s32.57,73.81,111.74,73.81c20.41,0,29,11.66,29,11.66s8.55-11.66,29-11.66c79.17,0,111.74-32.41,111.74-65.79s-24.05-53.42-24.05-84.13S292.82,48.73,292.82,48.73Z"/><path class="c" d="M276.32,94.14C283.22,72,296.78,51.82,297,51.55l2-3L263.67,2.48l-3.62,1.64c-40,18.11-75.91,18.18-106.8.23l-2.52-1.47-2.52,1.47c-30.89,18-66.82,17.88-106.8-.23L37.78,2.48,2.47,48.56l2,3c.18.27,13.74,20.42,20.64,42.59a97.56,97.56,0,0,1,2.57,10,64.91,64.91,0,0,1,1.36,12.68c0,13.76-5.36,23.58-11,34C11.64,162.52,5,174.64,5,193c0,37.95,36.53,78.81,116.74,78.81,17.37,0,24.66,9.26,24.93,9.61l4,5.35,4.06-5.31c.3-.39,7.59-9.65,25-9.65,37.92,0,67.66-7.15,88.37-21.25,18.29-12.45,28.37-30,28.37-49.55,0-18.14-6.54-32.29-12.86-46-5.75-12.45-11.19-24.21-11.19-38.15a64.91,64.91,0,0,1,1.36-12.68A97.56,97.56,0,0,1,276.32,94.14Zm-1.83,65.05c6.14,13.29,11.93,25.84,11.93,41.78,0,16.09-8.52,30.75-24,41.27-18.76,12.77-47.37,19.51-82.74,19.51-14.77,0-24.13,5.58-29,9.62-4.84-4-14.2-9.62-29-9.62C48.43,261.75,15,226.09,15,193c0-15.77,5.72-26.25,11.78-37.35s12.26-22.45,12.26-38.77a72.48,72.48,0,0,0-1.19-12.68q-.44-2.5-1-5c-.38-1.68-.82-3.35-1.29-5C30,74.32,19.23,56.06,14.76,49L40.92,14.85c40.6,17.44,77.51,17.3,109.81-.42,32.3,17.72,69.21,17.86,109.81.42L286.7,49c-4.47,7.08-15.24,25.34-20.82,45.16-.47,1.66-.91,3.33-1.29,5s-.73,3.34-1,5a72.48,72.48,0,0,0-1.19,12.68C262.38,133,268.53,146.3,274.49,159.19Z"/><line class="b" x1="31.72" y1="99.15" x2="269.05" y2="99.15"/><text class="d" transform="translate(64.48 88.3)">I<tspan class="e" x="26.73" y="0">O</tspan><tspan class="f" x="68.86" y="0">W</tspan><tspan x="124.72" y="0">A</tspan></text><text class="g" transform="translate(49.1 173.02) scale(0.97 1)">ANTIQUE</text><text class="h" transform="translate(37.47 218.94) scale(0.97 1)">NET<tspan class="i" x="94.89" y="0">W</tspan><tspan x="135.55" y="0">ORK</tspan></text></svg>