<svg xmlns="http://www.w3.org/2000/svg" viewBox="0 0 59.13 40.01"><defs><style>.a{fill:#636363;}.b{fill:#a53b2d;}</style></defs><title>bullhorn-red</title><path class="a" d="M13.34,23.93a1,1,0,0,1-.51-1.87L30.72,11.64a1,1,0,1,1,1,1.73L13.84,23.79A1,1,0,0,1,13.34,23.93Z"/><path class="a" d="M26.85,38.85a.82.82,0,0,1-.22,0L17,36.64a1,1,0,0,1-.76-1.2L17,32a1,1,0,0,1,1.19-.75A1,1,0,0,1,19,32.39l-.58,2.52,7.7,1.75.57-2.52a1,1,0,0,1,1.2-.76,1,1,0,0,1,.75,1.2l-.79,3.49A1,1,0,0,1,26.85,38.85Z"/><path class="b" d="M42.94,37.37h-.18L5.48,30.64a1,1,0,0,1-.8-.81l-1.07-6a1,1,0,0,1,.48-1L36.83,3.68a1,1,0,0,1,1,1.73L5.7,24.12l.82,4.67,36.6,6.6a1,1,0,0,1-.18,2Z"/><path class="b" d="M45.73,40a2.84,2.84,0,0,1-2.79-2.34L36.88,3.33a2.83,2.83,0,1,1,5.58-1h0l6.06,34.35A2.83,2.83,0,0,1,46.22,40,2.7,2.7,0,0,1,45.73,40ZM39.67,2h-.14a.84.84,0,0,0-.68,1l6.06,34.35a.85.85,0,0,0,.34.53.83.83,0,0,0,1.3-.82L40.49,2.69A.84.84,0,0,0,39.67,2Z"/><path class="b" d="M3.49,32.14A2.6,2.6,0,0,1,.94,30L0,24.91a2.6,2.6,0,0,1,2.11-3l.63-.11a2.6,2.6,0,0,1,3,2.11L6.69,29a2.6,2.6,0,0,1-2.11,3L4,32.1A2.38,2.38,0,0,1,3.49,32.14Zm-.26-8.4h-.1l-.63.11a.61.61,0,0,0-.39.25.6.6,0,0,0-.1.45l.9,5.09a.56.56,0,0,0,.24.38.61.61,0,0,0,.45.11L4.23,30a.6.6,0,0,0,.49-.69l-.9-5.09h0a.61.61,0,0,0-.59-.5Z"/><path class="b" d="M48,20.07a1,1,0,0,1-.17-2l9.53-1.68a1,1,0,0,1,1.15.81,1,1,0,0,1-.81,1.16l-9.52,1.68Z"/><path class="b" d="M46.77,13a1,1,0,0,1-.69-1.73l7-6.64a1,1,0,1,1,1.37,1.45l-7,6.65A1,1,0,0,1,46.77,13Z"/><path class="b" d="M58.13,31a.91.91,0,0,1-.39-.08L48.86,27a1,1,0,0,1,.79-1.84L58.53,29a1,1,0,0,1,.52,1.32A1,1,0,0,1,58.13,31Z"/></svg>