<svg xmlns="http://www.w3.org/2000/svg" viewBox="0 0 261.98 183.64"><defs><style>.a{fill:#88ad9b;}</style></defs><title>Asset 1</title><path class="a" d="M211.94.36a10.68,10.68,0,0,0-7.52,13l.81,3L17.12,116.77,16,112.55A8.13,8.13,0,1,0,.28,116.76L12.6,162.68a8.13,8.13,0,1,0,15.71-4.21l-.46-1.73,34.7-1,5.69,21.17c3.08,11.48,63.84,6.18,73.74-.36C148.81,172,154.53,160,157.44,153l83.85-2.44a10.62,10.62,0,0,0,20.33-6.09L225,7.88A10.68,10.68,0,0,0,211.94.36ZM133,167.28c-10.83,5.5-46.05,4.59-50.16,3.75-2.65-.54-6.18-9.39-8.37-15.65l70.42-2C142.47,158.47,138.6,164.45,133,167.28Z"/></svg>