<svg xmlns="http://www.w3.org/2000/svg" viewBox="0 0 50.28 44.22"><defs><style>.a{fill:#636363;}</style></defs><title>contact</title><path class="a" d="M47.66,44.22a1,1,0,0,1-.58-.17l-10.5-7.32a31.37,31.37,0,0,1-11.44,2.12C11.28,38.85,0,30.13,0,19.42S11.28,0,25.14,0,50.28,8.71,50.28,19.42A16.87,16.87,0,0,1,45.05,31.3l3.56,11.63a1,1,0,0,1-.37,1.1A1,1,0,0,1,47.66,44.22ZM36.71,34.6a1,1,0,0,1,.57.18l8.57,6L43,31.3a1,1,0,0,1,.27-1,14.84,14.84,0,0,0,5.06-10.86C48.28,9.82,37.9,2,25.14,2S2,9.82,2,19.42,12.38,36.85,25.14,36.85a29.08,29.08,0,0,0,11.18-2.18A1.07,1.07,0,0,1,36.71,34.6Z"/><path class="a" d="M11.46,23.28A3.49,3.49,0,1,1,15,19.8,3.48,3.48,0,0,1,11.46,23.28Zm0-5A1.49,1.49,0,1,0,13,19.8,1.49,1.49,0,0,0,11.46,18.31Z"/><path class="a" d="M20.53,23.28A3.49,3.49,0,1,1,24,19.8,3.48,3.48,0,0,1,20.53,23.28Zm0-5a1.49,1.49,0,1,0,0,3,1.49,1.49,0,0,0,0-3Z"/><path class="a" d="M29.59,23.28a3.49,3.49,0,1,1,3.49-3.48A3.49,3.49,0,0,1,29.59,23.28Zm0-5a1.49,1.49,0,1,0,1.49,1.49A1.49,1.49,0,0,0,29.59,18.31Z"/><path class="a" d="M38.65,23.28a3.49,3.49,0,1,1,3.49-3.48A3.49,3.49,0,0,1,38.65,23.28Zm0-5a1.49,1.49,0,1,0,1.49,1.49A1.49,1.49,0,0,0,38.65,18.31Z"/></svg>