<svg xmlns="http://www.w3.org/2000/svg" viewBox="0 0 56.73 37.61"><defs><style>.a,.b{fill:#636363;}.b{font-size:10px;font-family:MyriadPro-Regular, Myriad Pro;}</style></defs><title>home</title><path class="a" d="M21.55,31.08H34.42a1,1,0,0,0,0-2H21.55a1,1,0,1,0,0,2Z"/><path class="a" d="M1,31.08H3.87a1,1,0,0,0,0-2H2V17a5.32,5.32,0,0,1,.89-2.94L11,2H54.73V26.25A2.84,2.84,0,0,1,52.48,29a1,1,0,1,0,.4,2,4.85,4.85,0,0,0,3.85-4.73V1a1,1,0,0,0-1-1H10.49a1,1,0,0,0-.83.44L1.23,13A7.28,7.28,0,0,0,0,17v13A1,1,0,0,0,1,31.08Z"/><path class="a" d="M6.94,13.06a1,1,0,0,1,0-1L11.84,4.7a1,1,0,0,1,.83-.45h9.84a1,1,0,0,1,1,1v7.33a1,1,0,0,1-1,1H7.82A1,1,0,0,1,6.94,13.06ZM21.51,6.25h-8.3L9.68,11.58H21.51Z"/><path class="a" d="M36.05,30.3a7.31,7.31,0,1,1,7.31,7.31A7.31,7.31,0,0,1,36.05,30.3Zm2,0A5.31,5.31,0,1,0,43.36,25,5.31,5.31,0,0,0,38.05,30.3Z"/><path class="a" d="M4.91,30.3a7.31,7.31,0,1,1,7.31,7.31A7.31,7.31,0,0,1,4.91,30.3Zm2,0A5.31,5.31,0,1,0,12.22,25,5.31,5.31,0,0,0,6.91,30.3Z"/><path class="a" d="M39.73,30.3a3.63,3.63,0,1,1,3.63,3.63A3.63,3.63,0,0,1,39.73,30.3Zm2,0a1.63,1.63,0,1,0,1.63-1.62A1.63,1.63,0,0,0,41.73,30.3Z"/><path class="a" d="M8.59,30.3a3.63,3.63,0,1,1,3.63,3.63A3.63,3.63,0,0,1,8.59,30.3Zm2,0a1.63,1.63,0,1,0,1.63-1.62A1.63,1.63,0,0,0,10.59,30.3Z"/><text class="b" transform="translate(27.04 16.87)">HOME</text></svg>