<svg xmlns="http://www.w3.org/2000/svg" viewBox="0 0 35.21 49.79"><defs><style>.a,.b{fill:none;stroke:#636363;stroke-miterlimit:10;stroke-width:2px;}.b{fill-rule:evenodd;}</style></defs><title>lock</title><path class="a" d="M17.61,15.57A16.61,16.61,0,1,1,5.86,20.44a16.55,16.55,0,0,1,11.75-4.87Zm1.92,14.59a2.73,2.73,0,0,0-4.65,1.92,2.78,2.78,0,0,0,.29,1.22,2.74,2.74,0,0,0,.43.62l-1.17,6a.52.52,0,0,0,0,.18.76.76,0,0,0,.77.76h5a.77.77,0,0,0,.61-.9h0l-1.19-6A2.45,2.45,0,0,0,20,33.3a2.64,2.64,0,0,0,.29-1.22A2.67,2.67,0,0,0,19.53,30.16Z"/><path class="b" d="M4.87,21.52V13.73a12.74,12.74,0,0,1,25.47,0v7.79"/><path class="b" d="M8.7,18.16V13.73a8.91,8.91,0,0,1,17.81,0v4.43"/></svg>