<svg xmlns="http://www.w3.org/2000/svg" viewBox="0 0 265.25 185.79"><defs><style>.a,.e{fill:#9bb2a8;}.b{fill:#231f20;}.c{fill:#311a19;}.d{fill:#a63b2d;}.e{font-size:34.49px;font-family:Atrament-Bold, Atrament;font-weight:700;letter-spacing:0.05em;}.f{letter-spacing:0.04em;}.g{letter-spacing:0.05em;}</style></defs><title>logo</title><path class="a" d="M134,157.21C101.19,148.68,48.79,108.45,64,48.52H204.09C219.33,108.38,166.78,148.78,134,157.21Z"/><path class="b" d="M202.65,42.51c-2.4-12.72-7.19-26.84-15.1-42.51,0,0-28.33,12.64-53.52,0C108.84,12.64,80.5,0,80.5,0,72.6,15.67,67.81,29.79,65.41,42.51Z"/><path class="b" d="M204.09,48.52H64C48.79,108.45,101.19,148.68,134,157.21,166.78,148.78,219.33,108.38,204.09,48.52ZM134,153.6c-37-9.39-79.66-53-67.17-101.61H201.2C213.66,100.58,171.08,144.16,134,153.6Z"/><path class="c" d="M84.63,166.46s0-.06,0-.09l-.08,0h0c-.06.07,0,.11.06.11s.07,0,.09,0Zm4.89-7.24c0-.07.1-.09,0-.17s-.16.33,0,.17ZM91,156.89s.24,0,.17-.1-.28-.16-.17.1Zm-.9,1.31c-.19,0-.22-.36-.43-.14s.45.68.43.14Zm-7.15,9.42,0,0s-.21-.05-.08,0Zm6-8.18,0,0c0-1-.7.5,0,0Zm2-3.61c0,.16.26.06.22.22.35.87.59-.44-.22-.22ZM86,162.48c.24.16.56.64.75.65.17-.31-.45-.68-.75-.65Zm4.38-5.64c-.12-.15-.13,0-.24,0s0,.28,0,.11.24,0,.2-.1Zm-7.8,10.55c-.06,0-.29-.25-.24-.07S82.5,167.34,82.6,167.39Zm7.14-10.32c.07.07.16,0,.12,0s0-.07-.07,0-.08,0-.05.07Zm.48-.5c0-.19-.33,0-.16.05s.11,0,.16-.05Zm-7.24,9c-.12-.24-.06-.24-.32-.35a3.39,3.39,0,0,1,.32.35Zm.8-5.73c-.13-.13-.35,0-.16.15s.21-.07.16-.15Zm-.38-4.17c-.06-.15-.14-.23-.24-.22A.47.47,0,0,0,83.4,155.69Zm-3.76,2.93c-.22-.2,0,.39,0,.19s0-.12,0-.19Zm-3.52,4.18c-.5-.29-.23.58,0,.23a.15.15,0,0,0,0-.23Zm-.9.92c.68.27.34-.44-.15-.09Q75.09,163.69,75.22,163.72Zm1.53-1.83c.09-.1-.15-.31-.19-.21S76.64,162,76.75,161.89Zm-2,1.19c.3.16,1.19.37.59,0,0-.58-.35-.2-.59,0Zm1.78-2.39c.06,0,.06,0,0-.09s0-.08-.08,0,0,.24.1.13Zm6.94-7.75s.07-.14,0-.15a.06.06,0,0,0-.09,0,.22.22,0,0,0,0,.18s0,0,.06,0Zm-5.65,6.18c-.88-.4.18,1.34.17.28a.6.6,0,0,0-.17-.28Zm-2.82,3c-.13,0-.39-.31-.44-.06S74.84,162.21,75,162.11Zm10.25-10.73c.27-.25-.28-.87-.55-.59C85,150.93,85.05,151.45,85.25,151.38Zm-1,.23c.15-.23.28-.39.62-.28-.29-.31-.94-.16-.62.28Zm-1,.7h.13c.11-.07,0-.24-.11-.18s0,.12,0,.17Zm8.28,4.78c-2,3-4.15,6-6.09,9.07-.78,1-2.08,4.81-3.64,3.4-3.59-1.72,4.12-17.91-2.74-9-1.16,1.2-2.13,3-3.54,3.77-1.68-.73-2.26-2.52-.54-3.59,2.11-2.49,4.47-4.88,6.53-7.42,1.2-.79,2.64-4.38,4.09-2.86,2.11,2.13-2.2,8.53-1.08,11.29,2,0,4.31-7.53,6.39-6.86,1,.55,1.75,1.31.62,2.21Z"/><path class="c" d="M103.46,163.12c0-.07,0-.1-.07-.09s-.09.06-.11.1.16,0,.18,0Zm-.53.78c0-.11-.24-.18-.3-.11C102.56,164,102.81,164.08,102.93,163.9Zm-1.17-1.34c-.28-.16-.1.47.06.24s0-.19-.06-.24ZM98,169.89a.7.7,0,0,0,.42.21.7.7,0,0,0-.42-.21Zm0-.91a.32.32,0,0,0,.26-.06c.13-.11-.46-.18-.26.06Zm3-6.57c.12.18.21.12.35.08.1-.23-.16-.12-.28-.14v0l-.06,0Zm-.18.52q.09,0,.12,0C101,162.74,100.62,162.8,100.84,162.93ZM94.22,176.5l0,0c-.18-.09,0,.16,0,0Zm2.71-7.39c.08-.14-.14-.22-.19-.1s.15.16.19.1Zm3.38-7.12c.08-.1-.07-.35-.15-.21S100.16,162,100.31,162Zm-.21-.51c.19-.46-.5-.11-.17.06a.11.11,0,0,0,.17-.06Zm-4.3,7.35c.13,0,0-.1,0-.06s-.06,0,0,.06Zm0-.38c.33.15.14-.34,0-.15C95.67,168.34,95.69,168.39,95.79,168.45Zm-.6.14c-.23,0,0,.24.1.12a.29.29,0,0,0-.1-.12Zm.08-.83v-.07C95.05,167.61,95.11,167.76,95.27,167.76Zm0-.4s0-.07,0-.09-.05-.06-.08,0,0,.09.06.12v0Zm-.19,1.74c-.21-.15-.55-.76-.75-.35.15.1.54.45.75.35Zm-.6-1c.27.1.2.26.16.47.55,0,.16-1-.13-.45-.07,0-.28,0-.26,0s.17.07.23-.06Zm1.62-3.43c-.08.29.44.53.53.23a3.54,3.54,0,0,1-.53-.23Zm.4-.44a.16.16,0,0,0-.2,0c-.09.15.45.2.2,0Zm-2.44,5.12c-.19-.13-.24-.27-.47-.2A.44.44,0,0,0,94.07,169.33Zm2.36-5.86c.42.13.17-.07.44-.13-.15-.29-.7-.39-.59.08A.14.14,0,0,0,96.43,163.47Zm-1.32,1.72c.14.19.47.45.57.1-.12-.21-.37-.12-.57-.1Zm-2,3.87A.07.07,0,1,0,93,169v.07c0,.06.09.07.12,0Zm2.52-4.7c0-.05-.09-.13-.12-.06v.06Zm-1.85,3.56c.37-.31,1.52-.23,1-1-.25.05.08.5-.31.49s-.44.14-.77,0a.9.9,0,0,1,.12.51ZM92.12,170c.16,0,.29-.08.14-.17S92,169.9,92.12,170Zm2.22-2.75c-.11-.2-.16-.6-.4-.6s-.17.12-.16.22S94.17,167.14,94.34,167.24Zm.76,10.24c-8.69-3.52-5.13-4.18-1.89-10.7,0,0,0,0,0,0,1.24-1.43,3.22-7.59,4.92-7,1.28,1.33,7.39,2.39,6.13,4.46-1.17,1.6-3.63-1.32-5.22-1.42-1.57.16-2,2.69-2.62,3.91,0,1,1.36,1.1,2,1.58,1.5.16,1.07,2.68-.21,2.25-3-2-3.81-.57-5,2.25-.34,2.48,3.63,2.74,5.13,4,.59.42.3.68.18,1.22-.44,1.61-2.51-.14-3.48-.44l0,0Z"/><path class="c" d="M117.16,168.89c.12.06.2.07.25,0s-.15-.09-.25,0Zm.08-.37c0-.14-.24,0,0,0Zm-.84-.13c0,.05,0,.12.08.07a.28.28,0,0,1,.21.1c-.3.26.42.49.25.17s.16-.31.1-.48-.4-.16-.45,0a.24.24,0,0,0-.19.1Zm-.11-.51c0-.09,0-.1-.11-.08S116.21,168,116.29,167.88Zm-.69-.73c-.12,0,0,.25.07.27s0-.21-.07-.27Zm-.2.46c.18.09.25,0,.46-.06a.59.59,0,0,0-.46.06Zm-.3.18,0-.06s-.06,0-.07,0S115.05,167.81,115.1,167.79Zm-1.63,5.48h-.08c0,.09.06.1.12.08s0,0,0-.09Zm-.11.57c0-.29-.35,0-.17.12s.1-.06.17-.12Zm1.26-6.06s0,0,.08.05l0,0a.12.12,0,0,0-.08,0l0,0Zm0,.3c0,.19-.29.25-.39.41.32,0,.33-.2.39-.41Zm-.51.15a1.72,1.72,0,0,0-.08-.19c-.09,0-.11,0-.09.09s0,.14.08.16a.7.7,0,0,0,.09-.06Zm-2.27,7.86c.23.09.75.19.64-.17s-.6-.09-.64.17Zm-.21-.06s-.09-.05-.11,0,.44.12.11,0Zm1.8-8.07c0,.17.18.18.32.14s.07,0,0,0-.26-.13-.36-.1Zm.26.53a.53.53,0,0,0-.39-.11l0,.06A.33.33,0,0,0,113.73,168.49Zm-.35.3c.06-.12-.25-.23-.19,0s.17.16.19,0Zm-3,10.78c0-.07-.06-.06-.1-.08a.09.09,0,0,0,0,.09Zm2.33-9.06s-.07,0-.08,0l0,0c.07,0,.17,0,0-.07ZM110,180.86c-.15.13-.08.13,0,.33.08-.14.18-.18,0-.33Zm1.34-1.66c.13-.32-.58-.74-.82-.51-.46.75.32.65.78.67.14.45.61.23.13-.08,0,0,0-.06-.09-.08Zm-1.19.79s-.08,0-.09.06,0,0,.1,0,.08,0,.09,0-.07-.06-.1,0Zm3.4-12.25c-.26-.16-.78-.21-.5.15-.06.16-.08.4.25.41.31-.22-.28-.39.16-.47l.09-.09h.07l0,0s0,0,0,0Zm-.28-1.36c-.35-.06-.09.32.12.15,0-.12-.06-.08-.12-.15Zm-2.68-.36c-.06,0-.1,0-.11,0s.3.06.11,0Zm.88.52c.37-.54-.52-.58-.15,0-.26.07-1.07-.46-1,0-.77.4,1.44,1,1.86,1.13-.14-.63-1.25-.38-1.39-1.06a10.64,10.64,0,0,0,2.09.43l-.06-.1a10.54,10.54,0,0,1-1.37-.35Zm-1.43,12c.61-2.83,1.72-5.52,2.23-8.4,1-1.92-.31-2.34-2-2.68-1.16-.25-.57-1.77.08-2.2,2.68.85,5.53,1.41,8.22,2.27,1,.54.12,2.22-1,1.9-.76,0-1.63-.59-2.36-.27-1.83,4.41-1.74,9.9-3.78,14.06-3.37.29-2-2.64-1.44-4.68Z"/><path class="c" d="M139.5,171.12c.05,0,.08,0,.1,0s-.12-.18-.1,0Zm-.2-.14-.07,0c-.27.18.08.41.07,0ZM139,170c-.11-.1-.32-.15-.31,0s.28.12.31,0Zm-.16,2.64c.31.2,1-.29.56-.5a1.87,1.87,0,0,0-.56.5Zm.28,1.3c0-.08-.22,0-.2,0s.18.08.2,0Zm-.28-.39c-.09.38.43.07.39-.09s-.53-.11-.39.09Zm-.13-.62c-.07-.1-.18-.09-.19,0s.13.09.19,0Zm-.3.55c0-.08-.1-.05-.16,0s.18.11.16,0Zm.5,3.23c-.1-.24-.56.11-.39.2s.39-.08.39-.2Zm-.32.61c-.08,0-.13.09-.12.12s.24,0,.23-.07,0-.06-.11,0Zm0-.22c0-.14-.29-.1-.28,0a.19.19,0,0,0,.28,0Zm-.72-4.68s-.06.06-.06.14a.11.11,0,0,0,.18-.12.11.11,0,0,0-.12,0Zm.2,1.5a.19.19,0,0,0-.24-.11l-.06.05c.08.09.26.28.3.06Zm-.15,2.68c-.26,0-.16.34,0,.31s.21-.36,0-.31Zm.33,1.3c-.2.08-.46.13-.53.32l.08.05c.2-.1.67,0,.45-.37Zm-.5-.48a.13.13,0,0,1-.1,0s-.06.07-.06.09a.18.18,0,0,0,.14-.06v-.06c.07,0,.12,0,.14,0l0,0c-.05,0-.07,0-.07.06Zm.32,4.62a.16.16,0,0,0-.13.18l0,0c.17,0,.32-.2.09-.2Zm-.41-4.92c0-.09-.15,0-.2,0s0,0,.07,0,.09,0,.13-.07Zm-.12-.54c0-.07-.15-.06-.13,0s.15.09.13,0Zm0,7.59c.21-.08.13-.1,0-.21-.07.07-.07.14,0,.21Zm.55-1.66c-.41.13-.5.43-.8.55.11.09.57,0,.54-.17s.37-.19.26-.38Zm-.86-1.07c-.17,0-.24,0-.35.11s.28.06.35-.11Zm-.72-1.93a.89.89,0,0,0,.36-.33l0-.05c-.21,0-.21.16-.33.27s0,.07,0,.11Zm.61,5.6c.32.18.52-.39.14-.39-.09,0-.07.19-.11.22s-.34-.06-.36.08.1.15.18.1Zm-.19-4.33c-.21,0-.28-.11-.47,0,.19.11.26.19.47,0Zm.14,3.23c-.37-.05-.41-.16-.51.2.12-.14.36-.07.51-.2Zm-.35-2.59a1.84,1.84,0,0,0-.82.21c.27-.06.58,0,.82-.21Zm-.3,2.41c-.17-.13-.2-.28-.46-.22.21.15.19.09.06.3C136.24,184,136.27,183.86,136.46,183.87Zm-.48,1.07c.07,0,.1-.06.1-.11C135.91,184.66,135.73,184.93,136,184.94Zm-.14-.32c.13-.09.28-.1.32-.27-.18-.13-.32,0-.36.19l0,0s0,0,0,.06Zm-.92-2.43c0-.08,0-.09-.07-.06s-.08,0-.08,0,0,.06,0,.06.06,0,.11,0Zm-.31-6.12c0-.24-.39.11-.16.12s.17-.08.16-.12Zm-.13,3c.07,0,.09,0,.07-.08l0,0c-.09,0-.07.07,0,.11Zm-.36.56c.06,0,0-.08-.08-.08l0,.06s.06.06.11,0v0Zm-.17-1.47c-.06,0-.07,0-.06.05s.11.08.1,0l0,0Zm-.29-2.28c.1-.07.11-.16,0-.16S133.52,175.88,133.66,175.85Zm-.35-4c-.22,0,.05.21.06.06a.05.05,0,0,0-.06-.06Zm.17.3c-.07-.05-.09-.08-.07-.08-.37,0-.08.37.07.08Zm-.41-.92a.11.11,0,0,0-.06.11c.15.16.21-.07.06-.11Zm0,1.4c0-.09-.23-.06-.13,0s.22.06.13,0Zm.19,3.43c0-.07-.15-.15-.14,0s-.42.15-.19.25.35-.13.33-.22Zm-.65-5.07c0-.1-.06-.09-.12-.05s.11.1.12.05Zm-.42,1.32c-.07,0-.06.06-.06.11s.1.05.1,0,0,0,0-.08Zm.58,2.74c.24,0,.52-.25.12-.25,0-.26-.08-.3-.31-.46.12.19-.19.16-.25.25-.35.51-.16.79.44.46Zm-.66.5c-.38-.15-.18.36.07.14.07-.43.41.22.6,0,.6-.69-.43-.18-.67-.13Zm-.16-1.87c0-.07,0-.11-.1-.11-.26,0,.08.34.1.11Zm-.39-.3c-.07-.2-.29.14-.06.06a.05.05,0,0,0,.06-.06Zm-.09,1.7c-.14,0-.14.13,0,.14s.24-.15,0-.14Zm-.43-3.24a.56.56,0,0,0,.1-.3c-.1.09-.18.13-.1.3Zm0,4.17c.13,0,.13-.23,0-.16S130.94,176,131.05,176Zm-.45,1.48c.29.28-.28.46,0,.52.05.05.09.07.14,0,.21,0-.12-.15.07-.25s-.09-.21-.17-.3Zm-.12-2.86c-.13,0-.11.11,0,.11s.14-.1,0-.11Zm-.09,3.81c0-.17-.11-.23-.21-.08s-.39,0-.21.24c0,0,0,.06.07.06l0,0c0-.19.27-.11.32-.25Zm-.66,0c.09-.05.07-.45-.07-.33C129.47,178,129.66,178.34,129.73,178.4Zm-.82.83c.14,0,.25.05.35-.07a.24.24,0,0,0-.35.07Zm.05.91c-.34.05.16.2.1,0l-.1,0Zm-.28-.4c0-.11-.22-.12-.21,0s.23.09.21,0Zm-.41-.24c-.12-.14-.33.29-.35-.09l-.07,0c-.18.06,0,.4.09.42s.32-.21.33-.29Zm-1.33,3.56c.11,0,.16,0,.26-.06-.14-.05-.23,0-.26.06Zm.09-2.74c0,.08.14.12.14,0s-.15-.06-.14,0Zm.12-1.86.07,0a0,0,0,0,0,0-.05s-.07,0-.07,0l0,.06Zm-.19.34c0-.23-.33,0-.18.13s.12,0,.18-.13Zm-.27-3.32a.54.54,0,0,0-.08-.33C126.47,175.29,126.5,175.4,126.69,175.48Zm-.29.37c-.13.1.17.12.07,0s0,0-.07,0Zm-.1-2c-.19.4-.21.36.24.37-.1-.13-.12-.23-.24-.37Zm-.06-.53c0-.11.12-.19,0-.28-.12.09-.11.18,0,.28Zm-.12,1.23c.07,0,.08-.09,0-.14S126,174.48,126.12,174.51Zm-.35,3.74,0,0v.05c.11.09.15-.07,0-.08Zm0-2.94s-.1,0-.15.09c0,.25.42,0,.15-.09Zm-.28,1.05s-.07,0-.07,0,0,0,0,.08.06,0,.07-.05,0,0,0,0Zm.44-2.91c0-.22-.33,0-.37.1s.38,0,.37-.1Zm-.46,1.75c.08,0,.14-.2,0-.2s-.09.09-.07.11S125.4,175.19,125.47,175.2Zm0-1.52c0-.08-.19-.09-.2,0s.14.06.2,0Zm-.29-1.18a.28.28,0,0,0-.11-.23C125,172.39,125,172.47,125.13,172.5Zm-.18-.9,0,0c0-.06,0-.11-.08-.12s-.07.06-.07.08S124.89,171.59,125,171.6Zm-.39-1.86c0-.07-.13-.09-.13,0l0,.06c.06,0,.09,0,.1,0Zm11.64,9.36c1.27-2.59.88-5.83,1.5-8.68-.06-1.26.23-2.3,1.68-2.2,2.07.42-.1,7.46,0,9.32-.82,2.31.24,7.25-2.32,8.19-2.19.42-2.4-1.75-2.78-3.33-.67-2-1-4.44-2-6.25-1.5,2.57-1.55,6.4-2.78,9.3-5.09,2.12-3.52-6.77-4.82-9.65-.15-2.42-.89-5.1-.58-7.43.61-.08,2.25-.23,2.17.79a59.56,59.56,0,0,0,.91,5.94c.37.94,0,4.34,1.55,3.6.63-2.83,1.46-5.69,1.84-8.51.27-.42.28-1,.58-1.4a2.72,2.72,0,0,1,1.76-.16c1.08,2.29,1.37,5.19,2.34,7.61C135.6,177.12,135.3,178.6,136.2,179.1Z"/><path class="b" d="M156.12,172s0,0-.09-.06c-.23.1.11.23.09.06Zm1.71,5.28c0-.12-.21,0-.19,0s.19.11.19,0Zm-.54-1.7c.05-.19-.19-.12-.28-.17-.14.24.17.36.28.17Zm-.53-1.39c.12-.44-.65-.57-.37-.11C156.61,173.93,156.55,174.26,156.76,174.21Zm-.62-.92c.14-.09-.08-.18-.19-.14s0,.06,0,.06.08.17.15.08Zm-.87-1.68c0-.21.25-.25.26-.46-.41.08-.47.11-.26.46Zm-.59-2.2c-.06-.26-.35-.25-.27,0s.3.15.27,0Zm-.34-.41c-.13,0-.07.17,0,.14s0-.13,0-.14Zm.91,3c-.14.14.09.06.15,0l0-.08a.22.22,0,0,0-.12.07ZM154,168.73c-.15.05,0,.11,0,.13s0,0,.08-.08a.09.09,0,0,0-.12-.05Zm2.8,8.3c.14-.12-.12-.45-.26-.32s.09.48.26.32Zm-1.4-3.87c-.08-.21-.28.14-.07.11.06,0,.09-.06.07-.11Zm.75,2.09c.39-.2-.43-.46-.28-.05C155.91,175.28,156,175.3,156.16,175.25Zm.33-.86c.13-.13-.22-.13-.13-.28-.46.17-.58.15-.76.57.38.11.43-.11.54-.35s.17.22.35.06Zm-1.83-2.17c-.21.06.19.17.11,0a.15.15,0,0,1-.11,0Zm2.78,6.28c.27-.07-.48-.61-.33,0v.06c-.94.09-.15.6.34,0Zm-2.38-6.06a.81.81,0,0,0-.51.07c.18,0,.38.21.51-.07Zm-2.33-5c.07.39,0,.45.37.34-.11-.12-.32-.16-.37-.34Zm3.05,13.81c0-.07.35-.17.28-.25-.26,0-.44-.6-.68-.28s.09.35.4.53Zm-4.71-14.46c-.44.22.39.59.27.18-.12,0-.08-.25-.27-.18Zm3.71,14.67c-.05-.26-.67.27-.31.38a3.49,3.49,0,0,0,.32-.35v0ZM150,167s0,.06.05,0,0,0,.08-.05-.17-.11-.13,0ZM148.14,169a.16.16,0,0,0,.09.09c.14,0,.14-.13,0-.17a.19.19,0,0,0-.08.08Zm5.8,3.12c-.66-2.46-2.46-5.66-5.07-2.76-.74,3.23,1.52,7.11,2,10.46,2,2.75,6.47-.06,4.33-3.13-.35-1.55-.9-3-1.31-4.57Zm-5.58.07c0-.06-.08,0-.12,0a.23.23,0,0,0,.07.1l.05-.07Zm.89,3.74a.1.1,0,0,0,0-.18C149.13,175.63,149.06,175.92,149.25,175.88Zm1.26,5a.62.62,0,0,0,0-.49c-.28.31-.26.24,0,.49Zm-2.37-9.08s-.06,0,0,.07.27,0,.12-.06c0,0,0,0-.07,0Zm1.65,7.5s.11.06.23,0-.29-.24-.23,0Zm-2.13-8.94a.1.1,0,0,0-.08.07l0,0c.08,0,0,0,0-.09Zm2,6.79c-.29-.15-.22-.19-.51-.05A2.67,2.67,0,0,0,149.61,177.12Zm-2.56-8.45c-.07.05,0,.15,0,.25s.14-.29,0-.25Zm.77,2.47c-.07-.24-.45-.21-.33,0s.33.24.33,0Zm-.85-1.27c-.17,0,.06.29.12.12l0,0c.06,0,.14,0,.11-.09s-.14,0-.13,0-.1,0-.13,0Zm2.17,7.92s.07,0,.09,0c-.59-.18-.73.36-.09.08v0Zm-.33,1.09c.06-.06.07-.1,0-.13C148.73,178.54,148.48,178.93,148.81,178.88Zm-1.23-5.78c0-.2-.2-.17-.39-.19a.22.22,0,0,0,.39.19Zm-1-3c-.08.11.17,0,.11,0l0-.05c-.06,0-.09.05-.07.1Zm2.34,11.15c.25,0,.39,0,.48-.22a1,1,0,0,0-.48.22Zm9.59-4.2c1.47,4.87-6.23,7.65-9.39,4.72-1.55-1.85-1.3-4.72-2.24-6.92-.51-2.68-1.74-5.8,1-7.72,6.93-4.48,8.66,5.28,10.58,9.92Z"/><path class="c" d="M175.71,172.94c.08-.11.23-.14.14-.28s-.21.16-.14.28Zm-.45-.7c-.16.24.52.16.18,0a.27.27,0,0,0-.18,0Zm-5.79-8.1a.11.11,0,0,0-.12,0,.09.09,0,0,0,0,.08s.14,0,.1-.09Zm4.87,8c-.07,0-.11,0-.17,0s0,.07.15,0l0,0ZM168.13,163c.27.11.33,0,.47-.22a.65.65,0,0,0-.47.22Zm6.28,10.16c-.07,0-.09.07-.07.1s.22,0,.14-.05,0,0-.07,0Zm-1.14-2.13c-.2-.23-.88-.26-.7.24s.59,0,.7-.24Zm-6-8.11c.11-.07.26-.08.32-.22l-.07-.05a.32.32,0,0,0-.28.23l0,0Zm.11.32c.39.16.66-.72.34-.32,0,.2-.28.13-.34.32Zm-.9-1.54c-.17-.17-.16.3,0,.08,0,0,.06-.06,0-.08Zm.65.67c-.27-.26-.54.43-.19.24.05-.09.25-.09.19-.24Zm1.55,3.48c0-.05-.05,0-.08,0l0,.05c0,.07.07,0,.1,0Zm.68,1.29c0-.35-.5-.49-.77-.36s-.13.52.15.26-.09.22,0,.35C168.89,167,169.1,167.23,169.37,167.16Zm.14,2.63c.15-.06.11-.2,0-.16S169.37,169.86,169.51,169.79Zm-4.82-8.54-.05,0v0l.05,0v0Zm-.29,0c-.11-.1-.33.08-.24.16s.29,0,.24-.16Zm5.29,8.87c-.23-.13-.88,0-.49.3.12.07.37-.23.49-.3Zm-2-1c.1,0,.39-.21.26-.32s-.52.18-.26.32Zm-.22-.62c0-.05-.07-.06-.13,0-.12.2.16.14.13,0Zm-3.85-7.35c-.08,0-.27.1-.22.18s.31,0,.22-.18Zm3.69,3.2a2.74,2.74,0,0,0-4.23-1.22c-.07,1.5,1.31,3.2,1.93,4.6,1.58,1.26,3.66-2,2.3-3.38Zm1.39,11.72c0-.11-.25-.06-.19.06s.25,0,.19-.06Zm-2.44-4.52c.25-.31-.28-.38-.12-.16S166.09,171.56,166.25,171.55Zm2.46,4.91s0,0-.06,0l-.05,0c0,.05,0,.06.1,0a0,0,0,0,0,0-.06Zm-7.12-13.69c-.09-.19-.26.17,0,0,0,0,.06,0,0,0ZM167,174.59c0-.07-.08,0-.13,0s.08,0,.13,0Zm1.92,2.21c-.37,0-.6,0-.94,0,0,.21,0,.34,0,.4C168.35,177.19,168.48,176.89,168.89,176.8Zm-3.7-5.78c.55-.52-.66-.1-.34.26,0,.27.94-.32.48-.29a.21.21,0,0,1-.14,0Zm-3.31-5.56c0,.08.37,0,.27-.1s-.3,0-.27.1Zm-.51-.92c-.07,0-.08.08,0,.13s.27,0,.12,0-.06-.08-.11-.08Zm1.24,2.67a.06.06,0,0,0,0-.08c-.05,0-.17,0-.12.06S162.55,167.23,162.61,167.21Zm4.74,5.14a31.46,31.46,0,0,0,1.71,3.13c1.11,1.26-.37,2.1-1.56,2.32-2.85-3.57-4.72-9.28-7-13.73-1.93-3.39,7.62-5,8.57-1.6,3.53,7.47-3.48,3.94,7.54,9.76.79.46-.49,1.15-1,1.28-2.78,1.44-5.61-2.62-8.18-3.66-1.71-.47-.53,1.79-.1,2.49Z"/><path class="c" d="M189,160.56c0-.07-.43.08-.33.17a.2.2,0,0,0,.33-.17Zm-4-1.44q0,.09,0,.09s.07,0,.08,0,0-.07,0-.09a.1.1,0,0,1-.08,0Zm-.72-.33a.22.22,0,0,0,0-.23C184.09,158.26,183.84,158.9,184.22,158.79Zm.46.87c-.07,0-.1,0-.12.08l0,0h0s.06-.07.06-.1Zm.26.55c.08,0,.07,0,.14,0s0-.14-.09-.1a.23.23,0,0,0-.05.12Zm-7.23-7.75,0-.08c0-.06-.12-.06-.13,0Zm1.08,1.13s-.1.09-.06.18.17-.1.06-.18Zm2.64,5.37c.31.42.77-.06.55-.41s-.81.14-.55.41Zm-.79-1.83c-.18,0-.92.52-.45.54.1-.27.48-.17.45-.54Zm-.46.85h.09c-.91-.48-1,.8-.09,0Zm.19,1.45c0,.06-.06.1,0,.15s.07,0,.07,0a.21.21,0,0,0,.07-.13s-.05,0-.13,0Zm-.36-.84c-.15.07-.27.36-.2.46a.26.26,0,0,0,.2-.46Zm.61,1.74c.23-.15-.11-.28-.16-.19s-.07.4.16.19Zm-2.38-2.59c.12-.08-.06-.29-.13-.1s0,.2.13.1Zm3.41,4.3c-.08,0-.16.1-.1.16s.24,0,.1-.16Zm-4.56-5.19c-.07,0-.14,0-.06.08h0s0-.06,0-.08Zm7.28,8.85c0,.06.19,0,.14-.07s0,0-.08,0-.08.09-.06.11Zm-2-2.27c0,.06.07.1.06.13s.37-.08.16-.17a.24.24,0,0,0-.22,0Zm-3-3.92c-.06-.14-.39.06-.23.16s.37,0,.23-.16Zm3.39,4.53c.05.33.55.26.43,0s-.29,0-.43,0Zm-2.93-3.59c-.08-.11-.31,0-.26.18s.16-.14.26-.18Zm-2.8-2.78c.17,0,.05-.17,0-.11a.19.19,0,0,1,0,.11l0,0,0,0ZM182,163.1c-.07-.11-.33.06-.33.13s.31,0,.33-.13Zm-1.61-1.81c-.53.56.58.24.57.18s0-.05,0-.09a.69.69,0,0,1-.45-.09ZM178,158.84c.06,0,.31-.14.22-.22s-.28.14-.22.22Zm-.25-.83c-.1.21.21.21,0,.4-.33.49,1-.49,0-.4Zm4,5.48s0,.07,0,.13.2.07.21-.1a.16.16,0,0,0-.22,0Zm-4.46-5.29-.07,0a.12.12,0,0,0,0,.13h0c.05-.05.07-.08.05-.11Zm4.24,5.32c-.06-.1-.28.14-.11.16s.21-.09.11-.16Zm-2.36-2.75,0,0h0a.06.06,0,0,0-.09,0v0c0,.06.11,0,.16,0s.15.16.17,0-.12-.07-.17,0Zm-2.31-2.83s-.1,0-.11.09,0,0,.09,0,0-.06,0-.09Zm7.65,8.79c-.19.11-.3.1-.42.29l0,.07a.56.56,0,0,0,.37-.36Zm-5.57-6.52c-.06,0-.36,0-.4.07-.06.33.43.14.4-.07Zm2.39,3.82c.2.43.77.18.78-.17-.23-.15-.49.16-.78.17Zm-1.07-1.88c-.13-.13-.37.12-.28.29s.38-.15.28-.29Zm1.86,2.55c-.3-.22-.29.37-.07.16s.13-.13.07-.16Zm-1.47-1.5c-.06.55.74-.19.14-.07l-.14.07Zm2.95,3.41a.14.14,0,0,0,0,.21c0,.47.33,0,.41-.15a.9.9,0,0,0-.37-.06Zm-7.46-8.8c.16.45.48.15.54-.08-.2-.1-.31.11-.54.08Zm2.4,1.75c.23.22.36-.33.61-.19.06,0,.12-.25,0-.15-.37-.12-.45.15-.65.36-.29-.1-.5.16-.77.26.2.07.16.33.37.41C178.33,160,178.26,159.7,178.5,159.56Zm.56-8.73c1.75,1.61,1.88,4,2.84,5.91a47.73,47.73,0,0,0,9.53,2.84c1.22.15.43,1.36-.24,1.74-2.29,2.41-6.8-2-9.6-1.27-.81.75.58,1.62,1.07,2.26a40.2,40.2,0,0,0,2.93,3.4c.31.87-.82,1.44-1.44,1.87-1.65.18-2.36-2.57-3.55-3.54-1.82-2-3.5-4.22-5.17-6.33-1.09-1.28-3.71-3.13-1.1-4.32,1.94-.14,2.52,3.81,4.5,3.68.48-1.87-1.45-3.81-2.1-5.44.36-.85,1.6-2,2.33-.8Z"/><path class="d" d="M78,110.59a.19.19,0,0,0-.21-.22c-.44.06-.41.82,0,.44.14,0,.21-.07.21-.22Zm-.43-34.45c0-.3.13-.55-.33-.54-.59.39.19,1.4.33.54ZM77,65.31c-.07.08.58-.75.27-.71-.65-.14-1,.18-.27.71Zm.11,6.28c-.59.41-1.29-.59-1.41.54-.06,1.82,2.45,1,1.41-.54ZM75.9,118.28v-.21c-.46.08-.27.56,0,.21Zm.54-40.08V78c-.31-.92-1.37-1.06-1.09.22.18.88,1,1.17,1.09,0ZM74.81,62.06c.31.5.83-.41,1,.16.1.75.91.56,1.35.27.28-1.25-1.84-1.57-2.38-.43Zm-.22,32.61c.84.35,1.88-.11,2.6.54.22.14.33.07.33-.22,0-1.28-2.3-1.16-2.93-.32Zm.76-28.17c-.62-.19-.28.39-.65.54-.53.71.64.83.33.22-.07-.3.67-.45.32-.76Zm-.54,51.78c-.22,0-1.07-.09-.65.33S74.52,118.35,74.81,118.28Zm-.76-49.51c.35.07.43-.36.22-.43s-.22-.11-.22.11S73.91,68.7,74.05,68.77Zm.33-2.7c-.42-.58-.82.85-.33.54q.33,0,.33-.54Zm-1.63,45.6c-.63-.42-.52-.62-1.3-.32C72,111.49,72.26,111.51,72.75,111.67ZM64.63,92c-.58-.07-.78.9-.11.87.48,0,.35-.79.11-.87ZM55.74,80.37c-.43-.29-.75-.29-1,0A1.17,1.17,0,0,0,55.74,80.37ZM53,98.89c-.86,0,.78,1,.43.43a.38.38,0,0,0-.43-.43Zm.21,21.56a.65.65,0,0,0,.11,1.3c.63,0,.36-1.41-.11-1.3ZM53,125.54c1.48-.41.42-2.18-.17-.76.14.36-.19.66-.27.87s.22,0,.44-.11Zm-.11-9.43c0-.47-.85-.53-.76-.1-.15.21-.07.32.22.32.21.15.39.08.54-.22Zm-2,8.78c.83-.38,3.24-2.13,1.14-1.68.09-.41-.64-.7-.82-.59-.63.41,0,1.51-.32,2.27Zm-.65-11.7c.14-.14.07-.22-.22-.22s-.21-.1-.21.11c-.33.47.47.65.43.11Zm0-41.06c0-.17-.12-.59-.33-.43-.5,0,.07.73.22.65.07.07.11,0,.11-.22Zm-.22,33.05c-1.3.11-.38,2.19.65,1.94,1.39-.1.3-2.07-.65-1.94Zm-.32,16.24c-.36.35-1.33.19-1,1,.44,1.39.87-.41,1-1Zm1.41-58.6c.15-1.43-2.64-1.71-2.61-.22.64.25,1.55-.4,2,.43.28.29.5.22.65-.21Zm-2,3.46c-.13-1-.24-1.85.87-2.49C48.64,63.74,47.56,65.86,49.24,66.28Zm-.86,4.77.32-.33c-.1-1-1.22,0-.32.33Zm30.33-6.28c.55,16.13-.25,32.35,1,48.42-.72,4.25,1,9.45-1,13.22-7.92,3.92-8.87-7.46-11.59-12.14-17-45.87-10.59-13.74-11.92,10.51.09,3.44-4.07,2.34-6.17,1.74-3.78-.47-1.32-25.29-2.11-30.07.43-9-.77-18-.49-26.92.36-1.76-.89-9,1-10.13,6.8-1.45,7.43,2.37,9.54,7.75C60.14,75.86,64.43,84,67,92.93c1.52,4.15,4.21,4,4-.59-.29-6.33-.17-12.7-.38-19,.62-4.4-2.74-11.58,2.16-14.09,5-.48,6.87-.08,6,5.53Z"/><path class="d" d="M114.19,65c.42.14.7.11.84-.1-.31,0-.57-.2-.84.1Zm0-1.46c0-.54-.78.16-.1.1l.1-.1Zm-2.82.21c0,.21.08.45.31.2.33,0,.47-.06.74.21-.8,1.16,1.69,1.5.94.42-.78-.57.31-1.3,0-1.88-.41-.4-1.44-.2-1.47.52a1,1,0,0,0-.52.53ZM110.64,62c0-.33-.23-.4-.42-.21a.24.24,0,0,0,.42.21Zm-2.83-2.1c-.41.16.12,1,.42,1s.28-.28,0-.42-.08-.53-.42-.53Zm-.31,1.89c.69.15.82-.32,1.47-.63a1.81,1.81,0,0,0-1.47.63Zm-.84.94-.1-.21c-.14,0-.21,0-.21.11C106.09,62.87,106.54,62.79,106.66,62.69Zm-.94,21.75-.21.11c0,.36.22.35.42.21,0-.07-.07-.18-.21-.32Zm.11,2.2c-.29-1-1,.45-.42.63.46,0,.24-.37.42-.63Zm-.73-23.53c0,.07.1.1.31.1a.29.29,0,0,0,.1-.21.41.41,0,0,0-.31-.1.29.29,0,0,0-.1.21Zm.38,1c0,.75-.73,1.2-.94,1.88,1.1-.2.9-1.1.94-1.88Zm-1.53,1a5.66,5.66,0,0,0-.42-.63c-.54-.06-.18,1.05.21.94.15-.14.05-.16.21-.31Zm-.84,31.16c.62.24,1.23-.2,1.83-.36.29-.29-.23-.54-.11-.89-.26-1.4-1.85.38-1.72,1.25Zm-.63,0c-.14.19-.32-.1-.31.21-.32.75,1.36,0,.31-.21Zm-.94-31.47c.26.56.72.48,1.15.21.21,0,.24-.07.11-.21-.11-.78-.62,0-1-.21-.07-.07-.17,0-.31.21Zm1.3,1.67a1.5,1.5,0,0,0-1.36,0v.21a1,1,0,0,0,1.36-.21ZM102,68a.38.38,0,0,0-.42-.42c-.8.05.3,1.35.42.42Zm-.63,42.67c0-.27-.16-.2-.31-.21a.44.44,0,0,0,.1.32C101.28,110.81,101.17,110.68,101.33,110.69ZM101.23,75c-.15,0-.21.07-.21.21.1.36.76-.19.21-.21Zm-.11,40.79c-.31.65-.13.55.11,1.25.1-.55.35-.8-.11-1.25Zm2.51-7.43c.18-1.73-3.2-2.24-2.77-.1.29,2.75,1.46.66,2.77.73.13.07.75,1.38.94.63.6-.55-.34-.72-.62-1.05,0-.14-.11-.21-.32-.21Zm-2.72,4.08c-.31,0-.24.69.11.31.13,0,.21-.06.21-.2-.15-.14-.25-.18-.32-.11Zm.55-48.42c-.75.06-1.59-.52-1.78.21-.17.38-.18.6.31.84.14,0,.14.14,0,.41-.37.59.65,1,1.15.84.82-1.5-1.53-.68.53-2.41l-.11-.1c-.07,0-.1.07-.1.21Zm-2.12-4.71c-1.18.16,0,1.27.53.42,0-.45-.25-.24-.53-.42Zm-9,1.68c-.21,0-.31.07-.31.21.36.55,1-.16.31-.21Zm3.35.83c.54-2.65-2.23-1.41-.53,0-.8.52-3.93-.36-3.13,1.15-2.64,2,5.79,2.12,7,2-.05-1-.89-.3-1.25-.84-1.27-1-3.44.53-4.19-1.46A35.8,35.8,0,0,0,98.72,62l-.32-.32c-1.53-.09-3.34.57-4.7.21Zm5.85,45.29c.1-7.25-.23-14.38.11-21.65-.12-6,1-13.09-1.2-18.72-3-1.32-7.43.87-10-1.26C87.26,63.86,88,61,88.36,59c.63-1.23,2.86-1.17,4.08-.73,4.92.79,26.26-2.6,27.19,2.4,1.58,8.52-7.62,4.28-11.55,6.85-1.39,11.78-.31,24-.48,35.93-.69,6.28,1.18,13.72-1,19.5-1.47,1-4.61.75-6.2-.21-1.74-4.74-.66-10.54-.85-15.63Z"/><path class="d" d="M134,77.33c.11-.39-1-.46-.53,0,0,.32.57.24.53,0Zm-.42-1.67c.15-.36.66.33.62-.32C134,73.61,131.8,75.88,133.57,75.66Zm-.32,6.79c1.55-.1-.11-1.25-.31-.21C132.8,82.38,132.9,82.45,133.25,82.45Zm.21-11.5c-1.07.38-.14,1-.52,1.68-.21.27-.1.48.31.62,1.11.24.59-1.69.21-2.3Zm.24,48.48c-1,0-1.42,1.7-.53,1.57,1.32-.61,1.13-2,.73-3-1,.84-1.13.64-.2,1.46ZM132.42,112v.11h.1l-.1-.11Zm.63-42.31a.28.28,0,0,0-.32-.31c-.38-.46-.46.61,0,.52.07.07.17,0,.32-.21Zm-.63,26.43c-.16,0,0,.12-.21.11l.1.21q.21.1.21-.21l-.1-.11Zm-.32-20.58c.39,0,.41-.59.11-.83-.31,0-.15.28-.31.41C131.9,75.41,132,75.55,132.1,75.55Zm-.41,26.22c.3-.71,1.46-1,.73-1.77-1,.07-1.21.75-.73,1.77Zm-.11-36.14c-.61.4.42,1,.42.31a1.62,1.62,0,0,0-.42-.31Zm-.36,10.76c0,1.08,1.46,1.67,1.15.52-.07-.49-.23-.63-.47-.42s-.47.18-.68-.1Zm.15,35.83c0-.77-1,.08-.31.21.21.14.31.07.31-.21Zm.53-22.67c.08.91-1,.67-1.09,1.46,1,.56.68.52.51,1.78,2.41-.13-.15-4,2-3.34,1.67.07-.6-1.23-1-1.15-.46-.2-.61.58-1,.52.08.55.43.37.63.73Zm-.74,7.52c.15-.34-.29-1.11-.52-.52,0,.42.17.59.52.52-.15.36-.74.27-.41.84.52-.29.89-.2,1.35-.52-.23-.41-.6-.31-.94-.32Zm-.1,21c-.14.14-.25.21-.31.21-.44.59.31,1,.41.21.07,0,.11-.07.11-.21s.1-.07.1-.21c.26,0,.37-.09.57-.1.08.23-.06.74.21.73.45,0,.22-.54.16-.73a9.23,9.23,0,0,1,.05-2.09c.13-.85-1-.55-.63,0,0,.31.12.22.11.52a2.13,2.13,0,0,0-.47,1.46c-.21,0-.31.08-.31.21Zm0-45.55c0-.27-.07-.35-.21-.21s-.35.07-.21.21c-.06.33.72.24.42,0ZM132,83.07c0-1-.71-1.33-1.52-1-1,.66,1.4,3,1.52,1ZM130.85,69.7c-.46,0-.43.5-.73.73a.61.61,0,0,0,.21.42c.54,0,.81-.79.52-1.15Zm.68-9c-1,.79.77,1.92,1.26.94,1.05-1.26-3.57-2.46-2.49-.94Zm.05,18c-.12-.57-.66-.86-1.46-.62-.43.67.4.51.73.62s.44.32.73,0Zm-1.15-11.07c0-.24-.4-.27-.41-.1s0,.17.1.31.17-.07.31-.21Zm0,4.28a.09.09,0,0,0-.1-.1c-.61-.1-.33.71.1.1Zm-.75,4.5a.88.88,0,0,0,.31-1.15c-.47.28-.13.74-.31,1.15Zm0-7.73h-.21c-.25.35.12.36.32.2,0-.13,0-.2-.11-.2Zm.11-7.74c-.24-.15-.42-.14-.42.32l.1.1c.07,0,.18-.14.32-.42Zm.31,27.69c-.34.09-1.24-.32-.94.31,0,.44.95,0,.94-.31Zm-.63,20.48c-.19.4-.74.57-.41,1,.63.48,1.14-.39.41-1Zm-1.77-25.7c1.64-5.92-2.11-21.78,1.85-24.76,8.86-1.66,5.43,7.12,5.88,12.64.47,13,.53,26.08.05,39.12-.2,5.61,3.32,15.68-6.13,12.91-3.24-.75-1-5.49-1.65-7.94-.53-10.88.28-21,0-32Z"/><path class="d" d="M178.37,122.83c.88-.14-.25-.74-.31-.22C178.06,122.76,178.17,122.83,178.37,122.83ZM176,103.06c-.16,0-.05-.12-.21-.11-.08-.25-.18.38,0,.32l.21-.21Zm-1.68-14.54c.48-.16.76-.73,1.31-.42s.79-.86.16-.57-.82-.77-1.1-.47-.77.78-.37,1.46Zm-1.15-19.87c-.06-.16-.44-.15-.62.11,0,.13.1.2.31.2.14-.17.32,0,.31-.31Zm-.41,11.51c.34-.08.52-.35.52-.84C172.76,78.51,171.5,80.21,172.73,80.16Zm.31.41c-.79.87-1.43,1.29-.42,2.51.22,0,.43,0,.42-.31-.42-.63,1.07-1.75,0-2.2Zm-.84,7.32v-.1c-.25-.36-.42-.08-.21.21.14,0,.21,0,.21-.11ZM171.78,116c.48-.2.6-.48.11-.53S171.13,116.05,171.78,116Zm.42-4.29c0-.69-.89-.35-.83.1s1,.43.83-.1Zm-2-47c1,2.41,1.73-.92,0,.11-.36-3.7-2.63-.55-1.05.83.82,0-.33-.84.21-1.15A1.83,1.83,0,0,0,170.22,64.78Zm-3.29-2.93c-1.48.6-1.44,2.31.42,1.89.11-.85-.43-1-.42-1.89.25,0,.66.06.63-.31l-.1-.11a.29.29,0,0,0-.32.32.28.28,0,0,1-.21.1Zm-3,.63c-.37.3-.56,1.06-.21,1.26h.42a.94.94,0,0,0-.21-1.26Zm-1.26,2c-.27-.29-.66-.82-.73,0,0,.37.78.46.73,0Zm-2.51-1.36a.66.66,0,0,0-.31-1.26C159.17,61.81,159.51,63.25,160.17,63.11Zm-.93,57c-.25.08-.32.53,0,.52s.23-.57,0-.52Zm-.32-3.25c-1,0-.36.68-.21,1.15-.07.67-.15,1.21.63.84.94,0,1-1.9.21-1.88a.63.63,0,0,1-.63-.11Zm-1.11-53.65c-.76,1,.17,2.65,1.15,1.68-.31-.53-1-1-1.15-1.68ZM170.32,81.1c-.59-4.36.69-9.81-2.93-13.13-3.33-3.31-10.24-2-11.29,2.88-2.57,8.35.14,17.55-1.47,26.09.73,5.33-1,11.59,2.72,16,3.91,5.59,12.77.88,13.18-5,.28-8.85-.75-18-.21-26.87Zm-16.73.83c-.49-1.76-1.74.17-.32.32.21.14.32,0,.32-.32Zm-1.89,26.15a.18.18,0,0,0-.2-.21c-.18.14-.31.44,0,.42.13.14.2.07.2-.21Zm-2.92-1.15-.11-.21c-.14,0-.21,0-.21.1C148.2,107.11,148.65,107,148.78,106.93Zm-.42-1.68c0-.34.59-.56.1-.94-.66.27.26.62-.1.94Zm30-30.11c-.62,6.93.79,13.83.11,20.81-.74,5.66,1.43,11.66-.84,17-2.61,4.31,4.46,6.31,3.35,10.15-1.36,2.87-5,4.9-7.34,2.09-5.12-5.31-17.17,2.34-23.2-7.64C144.67,111,147.89,102,147,94.17c.63-9.22-1.87-19,1.88-27.72,6.94-15.12,31-7.35,29.49,8.69Z"/><path class="d" d="M219.1,109.07c0-.14-.14-.25-.43-.32l-.11.22c.22.64.51.76.54.1ZM219,77.55c0-.29-.08-.36-.22-.22-.24,0-.34.36,0,.33.14.14.22.11.22-.11Zm.21,2.82c-.22-.56-.75-.61-.75,0s.54.64.75,0Zm-.11-12.68c0-.35.1-1.26-.43-1.08S218.47,67.76,219.1,67.69Zm-1.33,49.62c.26-.8.49-1.56-.54-1.52-.47.51.16,1.12.54,1.52Zm-.18-15.93a1.18,1.18,0,0,0,1.19-.76C218.71,98.57,215.26,101.27,217.59,101.38Zm-.33-22.75c.12-.87-1.07-.06-.32.22.13.16.33-.09.32-.22Zm-.21,6.5q0-.21-.33-.21c-.17.15-.14.44.11.43l.22-.22Zm-1.2-1.19-.1.11v.22c.26.14.26-.2.1-.33Zm.22,31.2c0-.42-.26-.17-.43-.11-.06.39.43.45.43.11Zm-.87-2.71c0-.21-.07-.29-.21-.21-1.05,0,.19,1.32.21.21Zm1.11-23.94c.13.74.51.45,1,.33.23-.67-.88-.32-.65-1,.21-.2.82.18.22-.43-.81-1.1-1.91-.57-2.82-1.41-.42.81.59.65.54,1.08C214.27,88.15,215.39,88.43,216.31,88.49Zm-2.16,6.72c.19-.81,1.84-.64,1.21-1.63h-.11c-.44,1.18-.77-.39-1.32,0a2.19,2.19,0,0,0,.22,1.63Zm.19,23.94c0-.65-.7-.09-.65.11-.23.33.39.27.65-.11Zm-.54-53.84c-.37,0-.47.11-.33.32-.08.56.51.76.54.22.15-.22.07-.4-.21-.54ZM212.17,119c-.5,0-.72.22-.65.65.08.65.87-.27.65-.65.29,0,.43-.11.43-.32s-.48,0-.43.32Zm-1.62,2.49c1-.16-.57-1.43-.33-.32,0,.36.11.47.33.32ZM205,124.78c.44,0,.44-.69,0-.65C204.81,124.33,204.66,124.76,205,124.78Zm-2-4c-.08-.09-.68-.23-.65.11s.7.37.65-.11Zm-5.63-3.14c.18-.22.38-.63-.11-.65S196.91,117.7,197.44,117.63Zm-.33,2.6c-.39,0-.26.45,0,.44.47.42.4-.4,0-.44ZM194.62,106l-.21-.21a.33.33,0,0,1-.22.1c0,.29.07.36.22.22S194.46,106,194.62,106Zm-.54,8.78c-.92,1,0,2.64,1.08,1.84-.08-.57-1.17-1.08-1.08-1.84Zm-.87-11a.33.33,0,0,0,.22-.11C193.34,103.11,192.87,103.52,193.21,103.77Zm1.09-32.5c.07-.48-.74-.38-.55-.87s-.33-.26-.43-.11c-.29.29-.29.43,0,.43C193.68,70.89,193.74,71.46,194.3,71.27ZM193,66.18s1.41-.07.86-.44c-.12-.54-1.09.1-.86.44Zm1.84,34.88a2.22,2.22,0,0,0-.6-2.44c.13-1,.78-2.69-.43-3.14-.77-.16-1.1.47-.49.92,1.05,1-.82,2.47.11,3.36-.29.5-.25.74.11.7C194.29,100.26,194.33,101,194.84,101.06ZM193,94.34c.31,0,0-.3,0-.43C192.56,93.88,192.56,94.37,193,94.34Zm.11-29.68c.14-.14.07-.22-.22-.22a.29.29,0,0,1-.22.11c0,.22.07.32.22.32s.22.08.22-.21Zm-.65,54.71c.75.31,1.08.22,1.84.54-.27-.9-.88-1.06-1.3-1.84-.31.55-.21.8-.54,1.3Zm-.33-37.6c-.4,0-.23.86.22.76.81.43.21-.65-.22-.76Zm-.33,4.45c.34.34.35,1,.93.86s1.19.32.65.81c-.26.26-.2.46.16.6,2.58-1.75.33-2.73-1.74-2.27Zm-.32,11.91c-.76-.76.54-1.06-.22-1.73h-.21C190.84,97.45,190,97.78,191.48,98.13ZM190,69.53c.42,0,.65-.28,1-.43.4,0,.76.26.86-.43-1.32-.09-1.16-.23-1.84.86Zm28.58-11.48c-.18,1,.39,1.31,1,2,1.57,1.61.87,4.52,1.1,6.61-.55,5.94.36,11.79-.16,17.71-.84,10.77,1.64,22-1,32.55-2.41,10.34-17.05,12.6-24.68,7.15-10.71-8.62-5.29-24.92-6-36.94.84-8.2-3.93-21.75,1.95-27.95,4.63-1,6.41,1.91,5.69,6.29,1.07,16.39-2.3,33.81,1.46,49.72,5.77,8.11,16.33.49,14.3-8,.58-14.6-.6-29.21-.1-43.82.1-2.89,2.63-3.8,5.15-3.95.89.13.57-.92,1.32-1.3Z"/><path class="d" d="M260.28,61.23c-.17-.25-.29-.33-.37-.25-.35,0-.24.42-.25.63.42-.08.62-.21.62-.38Zm-.62,4.27c-.24-.46-1.18-.26-1.26.13-.17.63,1,1.13,1.07.44a.58.58,0,0,1,.19-.57Zm-6.41-3.26c-1,0-.16,1.2.25,1.26.76,0,.28-1.42-.25-1.26Zm-.88,37.67a1.84,1.84,0,0,0,1.63,0,1.84,1.84,0,0,0-1.63,0ZM251,96.14a1.11,1.11,0,0,0,.76-.75C252,94.62,250,95.64,251,96.14Zm-.63-33c.77.51.94,0,1.39-.38,0-1.12-.77-.19-1.26,0,0,.23-.1.2-.13.38Zm.25,2.51c.45,0,.56-.68,0-.63S250.05,65.68,250.61,65.63Zm-.25,69.07-.12-.13c-.65,0,.09.74.12.13Zm-2.63-35.79c.05-.72-.79-.56-.76,0,.26.34.72.33.76,0Zm-.63-36a.86.86,0,0,0-.38-.76c-1-.48-.28,1.69.38.76Zm-1.63-1.64c-.26-1.45-1-1-1,.26-.33.53,1.21.54,1-.26Zm-1.76,38.93c.39-.31-.26-.31-.25-.12-.17.17-.13.25.12.25l.13-.13Zm-.63-1.5a.45.45,0,1,0,0-.88C242.59,97.76,242.39,98.77,243.08,98.66Zm-1.63,1.88c-.81.29.35,1,.5.25a.73.73,0,0,0-.5-.25ZM240.32,97l-.13-.25C239.38,96.91,239.74,97.36,240.32,97Zm-.63-1.63c.08-.25,0-.38-.13-.38-.16-.16-.25-.12-.25.13-.29.41.11.39.38.38v-.13ZM242,102.8c-.66-.57-1.47-.18-2.13-.75-.26-.25-.47-.17-.63.25-.1,0-.29,1,.19,1,.84-.78,2.05.72,2.57-.5ZM238.43,100c1.08-.21,1,.75,1.26,1.5,1.64-1.28-1.07-4.2-1.13-1.5-.25.06-1,.55-.75.75.69.28.64-.24.62-.75Zm-.75-17.33c.28,1.4,2.36,1.08,2.14-.25a9.7,9.7,0,0,1-2.14.25Zm.5-2.64a.59.59,0,0,0-.62.5c0,.78,1.81-.28.62-.5Zm1,25.87c-.81-.09-1.21-.5-1.76.25a1.24,1.24,0,0,0,1.76-.25Zm-2.58-28.63c2-.72.15-.65,1.2-1.51-1.21-.89-2.93.17-1.76,1.63a.44.44,0,0,0,.56-.12Zm-1.19,9.79c.9.56,2.34.53,2-.88-.77-.56-1.45.41-2,.88Zm.38,20c0-.51-.54-.51-.51,0,.09.34.54.54.51,0Zm-.25-24.36c-.07-.53-.77-.14-.38.25.08,0,.21-.08.38-.25Zm.37,18.33c.06-1.85,2.15-1.92,2.33-3.64.12-.77-.11-2.51-1.07-2.51a.52.52,0,0,0-.13.75c1.3,1.51-1.05,3.07-2.38,3.64a3.69,3.69,0,0,1,1.25,1.76ZM234.42,113c.53-.19.75-1,.12-1S233.77,113,234.42,113Zm2.13-16c-1-1.63-3.49-2.43-2.2.13.13.08.27,0,.44-.13C235.41,96.43,235.77,97.5,236.55,97ZM254.25,137c-5.37-1.15-22.41,3.73-21.72-4.77-.78-11.4.11-23-.25-34.41.08,0,.08,0,0-.13-.23-6.56.25-13.11.13-19.71.13-5.31-3.11-17,2.88-19.47,6.71-.34,13.69.45,20.54-.19,7.48-.24,11.09.32,8.6,8.61-5.92,4.47-20.55-3.57-22.73,5.27.55,4.65-2.59,20.32,3.83,20.15,2.73.29,9.49-1.4,10.61,1.82-.21,2.36,1.14,5.29-.69,7.29-4.41,1.91-11-1.78-13.25,4.65-.1,19.23-4.12,21.41,17.14,21.34,6.41-1.16,6.5,3.74,5.34,8.42-2.72,2.06-7.14,1.07-10.43,1.25V137Z"/><path class="d" d="M36.18,134.9c-.25-.47-.86-.54-.87,0-.08.28.92.38.87,0Zm-5.86-21c-.09,0-.21.08-.38.25v.25c.43.41,1,.74,1.25.37l.12-.12c0-.34-.1-.5-.31-.5Zm-.75-7.74c.52-1,1.39-1.23.75-2.49-.32.88-1.53,1.27-.75,2.49Zm.12,18.59c-1.08.19-.05,1.88.5,1.25.32-.35-.34-.8-.5-1.25Zm1-6.11c-.87-1-2.54,1.12-1.5,1.62.42.25.63.17.63-.25,0-.76.61-.68.87-1.37Zm-2.24-14.22c-.34,0-.5.21-.5.62-.25,1.32,1.82-.21.5-.62Zm-.63,6.23a.39.39,0,0,0-.12-.25h-.13l-.12.13c-.05.22.34.38.37.12ZM27.7,89c-.5.25-.63.7-.38,1.37.14-.56.76-.7.38-1.37Zm.5,29.07c-.25-.41-1.32-.85-1.38-.13.09.53,1.09,1,1.38.13Zm-2.13,0c0,.08.05.12.13.12a.11.11,0,0,1,.12-.12l-.12-.13-.13.13Zm.88-5.37c-.74.47-1.4,1-.75,1.25.61-.22.39-.7.75-1.25Zm-1.13-4.37c.25-.08.38-.2.38-.37-.17-.23-.53-.21-.5.13a.35.35,0,0,1,.12.24Zm-.62,7.24a.11.11,0,0,0-.12-.12c-.17-.17-.25-.13-.25.12-.37.32.44.36.37,0ZM25,121.3c.53-.2,1.15-1.25.38-1.5-.85,0-.78,1-.38,1.5ZM24,82c1,0,1.3-1.94.25-1.62C23.5,80.44,23.27,81.92,24,82Zm.5-6.49c-.27-.49-1.05-.29-.87.25.08.25,1,.14.87-.25Zm-1.12-8.23a.83.83,0,0,1-.62.25c-.91.71,1.29,1.63.62-.25ZM22.21,89.49c-.16,1.7,1,3,.81,4.61-.29.92,1.24,1,1.81.63,1.37-.4,2.29-1.84,3.74-1.75.64-.94-1.54-.47-1.25-1.37-.43-.65-.68.36-1.18.37-.66.09-1.09,1.74-1.56,1.62-1.56-.29-1.85-2.59-1.75-4,.68.7,1.13-1.17,1.75-1,1.41.57.54-.42,1-1-1.65-.27-2.18,1.15-3.49,1.63a.36.36,0,0,0,.13.25Zm.37-24.71c.07.55-.72.44-.5,1,1.93.67,1.35-.77,1-2,0-1-1.18-.33-1.62,0,.16.58.85.48,1.12,1Zm-3,18.84c.65-1.21.9-1.09-.13-1.75a2.58,2.58,0,0,0,.13,1.75Zm.12,36.93c.25,0,.38-.08.38-.25.34-1-1.55-.08-.38.25Zm0-2.49c-.14-.16-.39-.41-.37,0,.14.16.39.39.37,0Zm.75-31.69c-1.12,0-.83.29-1.62,1.37.5.33.75.17.75-.5s.59-.51.87-.87ZM17.22,65.28a2.84,2.84,0,0,0,1.18.31c.28-.15,1.35-2.09.19-2.05-1.2-.12-.95,1-1.37,1.74Zm-.13,53.65c-.51-.1-.49,1,0,.62.35-.21.31-.91,0-.62ZM16.84,88c0-.55-.68-.73-.75-.13s.73.7.75.13ZM15.59,62.54c-.24,1.08.09,1.49,1,1.24-.61-.39-.12-1-1-1.24Zm.88,55.64c-.17-.33-.38-.41-.63-.25-1.1.19.65,1.2.63.25Zm-2.12-2.37c0,.52.6.49.75.87s.29.3.62.13c0-.3.3-.74-.25-.75s-.65-.64-1.12-.25Zm4.49-1.37c7.56.42,5.33-3.73,4.3-9.11-1.82-4.86-.22-12.42-4.05-15.85-1.31.24-.88,2.09-1.5,3.06-.56,3.6-1.78,7-2.49,10.55C14.74,107.23,11.84,115.32,18.84,114.44ZM12.6,87.24c.33.88.11,2.66,1.69,2.12-.37-.68-.42-2-1.69-2.12Zm-.12,16.84c-1.19.09,1,.93.62.25-.22-.2-.33-.07-.62-.25Zm1.74-20.21c-.46-.28-1.63-.28-1.87.13a1.71,1.71,0,0,1-.25,1.24c-.56,1.18,0,2.44,1.12,1.13a7.21,7.21,0,0,1,1-2.5Zm-2.87,26.95c0-.59-.84,0-.37.12.08.09.21,0,.37-.12Zm-2.62.75c.89-.11,1.55-1.33.88-1.25s-.5.72-.88,1.25Zm-.62,14.59c.14.57.82.24,1.12.63,0-.25,0-.38.13-.38-.25-.68-.91-1.16-1.25-.25ZM7,132.9c-1.44.36-.51,1.77.49,1.75.73.14.43-1.75-.49-1.75ZM5.12,118.8c-.17.17-.25.3-.25.38.16.17.28.25.37.25l.25-.25c-.17-.25-.29-.38-.37-.38Zm1.62,11.73c-.45-.53-1.09-.51-1.25-1.25C3.7,128.65,4.79,131.66,6.74,130.53Zm-3.75,2c.39-.3-.09-1.05.13-1.37C2.74,130,1.62,132.94,3,132.53Zm14.6-8.61c-5.5-.16-6.37.68-7,6.11-.39,7.54-4,8.55-10.6,6.24.25-9.55,3.5-19.24,5-28.82C7.4,94.14,9.38,81,12.6,67.9c1-7.12,2.14-11.37,10.42-8.73,2.51,2.5,1.61,6.37,2.43,9.48a57.52,57.52,0,0,1,2,10.86c1.23,6.88,3.76,13.6,4.49,20.58,1.44,7.48,2.51,15.22,4.36,22.58,0,3.92,5.53,14.24-1.12,14.35-3.35-.55-6.51.21-7.23-4.12-.1-8.73-2.12-9.36-10.36-9Z"/><text class="e" transform="translate(101.15 37.03)">IO<tspan class="f" x="27.73" y="0">W</tspan><tspan class="g" x="51.32" y="0">A</tspan></text></svg>