<svg xmlns="http://www.w3.org/2000/svg" viewBox="0 0 46.46 60.6"><defs><style>.a{fill:#636363;}</style></defs><title>newstv</title><path class="a" d="M40.44,48.6H6a1.39,1.39,0,0,1-1.39-1.39v-27A1.39,1.39,0,0,1,6,18.8H40.44a1.39,1.39,0,0,1,1.39,1.39v27A1.39,1.39,0,0,1,40.44,48.6Zm-33.81-2h33.2V20.8H6.63Z"/><path class="a" d="M40.37,60.6H34.81a1,1,0,0,1-1-1V55.31H12.18V59.6a1,1,0,0,1-1,1H5.63a1,1,0,0,1-1-1V52.91A5.92,5.92,0,0,1,0,47.22v-27a6,6,0,0,1,6-5.86H40.44a6,6,0,0,1,6,5.86v27A5.93,5.93,0,0,1,41.37,53V59.6A1,1,0,0,1,40.37,60.6Zm-4.56-2h3.56V52.07a1,1,0,0,1,1-1,4,4,0,0,0,4.09-3.85v-27a4,4,0,0,0-4-3.86H6a4,4,0,0,0-4,3.86v27a4,4,0,0,0,3.71,3.84,1,1,0,0,1,.92,1V58.6h3.55V54.31a1,1,0,0,1,1-1H34.81a1,1,0,0,1,1,1Z"/><path class="a" d="M23.23,12.08a1,1,0,0,1-.71-.3L12.64,1.7A1,1,0,1,1,14.06.3l9.17,9.35L32.4.3a1,1,0,0,1,1.43,1.4L23.94,11.78A1,1,0,0,1,23.23,12.08Z"/><path class="a" d="M27.13,16.24a1,1,0,0,1-1-1,2.9,2.9,0,1,0-5.8,0,1,1,0,1,1-2,0,4.9,4.9,0,1,1,9.8,0A1,1,0,0,1,27.13,16.24Z"/><rect class="a" x="19.66" y="50.04" width="13.62" height="2"/><rect class="a" x="13.18" y="50.04" width="2.97" height="2"/><path class="a" d="M8.51,37.51V30.18h1l3.85,5.76V30.18h.93v7.33h-1L9.45,31.75v5.76Z"/><path class="a" d="M16,37.51V30.18h5.3V31H16.92v2.25H21v.86H16.92v2.5h4.5v.86Z"/><path class="a" d="M24,37.51,22.1,30.18h1L24.21,35c.12.5.22,1,.31,1.5l.33-1.36,1.4-5h1.17l1,3.71a20.85,20.85,0,0,1,.57,2.6c.09-.47.21-1,.36-1.6l1.15-4.71h1l-2,7.33h-.94L27,31.92c-.13-.46-.21-.75-.23-.86-.08.34-.15.63-.22.86L25,37.51Z"/><path class="a" d="M32.11,35.16l.91-.08a2.22,2.22,0,0,0,.3.9,1.62,1.62,0,0,0,.74.57,2.75,2.75,0,0,0,1.13.22,2.68,2.68,0,0,0,1-.17,1.39,1.39,0,0,0,.63-.45,1,1,0,0,0,.21-.63,1,1,0,0,0-.2-.6,1.4,1.4,0,0,0-.66-.43,11.42,11.42,0,0,0-1.31-.36,6.73,6.73,0,0,1-1.41-.46,2.05,2.05,0,0,1-.79-.68,1.69,1.69,0,0,1-.25-.92,1.83,1.83,0,0,1,.31-1,2,2,0,0,1,.92-.74,3.87,3.87,0,0,1,2.79,0,2.1,2.1,0,0,1,1,.77,2.26,2.26,0,0,1,.36,1.15l-.93.07a1.51,1.51,0,0,0-.51-1.05,2.61,2.61,0,0,0-2.56,0,1,1,0,0,0-.41.78.84.84,0,0,0,.29.65,3.82,3.82,0,0,0,1.46.52,10.45,10.45,0,0,1,1.63.47,2.27,2.27,0,0,1,.94.75,1.85,1.85,0,0,1,.31,1,2.06,2.06,0,0,1-.34,1.11,2.18,2.18,0,0,1-1,.8,3.4,3.4,0,0,1-1.42.29,4.31,4.31,0,0,1-1.67-.29,2.37,2.37,0,0,1-1.05-.87A2.41,2.41,0,0,1,32.11,35.16Z"/></svg>