<svg xmlns="http://www.w3.org/2000/svg" viewBox="0 0 54 54"><defs><style>.a{fill:#fff;}.b{fill:#a53b2d;}</style></defs><title>plus</title><circle class="a" cx="27" cy="27" r="25.5"/><path class="b" d="M27,3A24,24,0,1,1,3,27,24,24,0,0,1,27,3m0-3A27,27,0,1,0,54,27,27,27,0,0,0,27,0Z"/><path class="a" d="M27,41a1.5,1.5,0,0,1-1.5-1.5v-25a1.5,1.5,0,0,1,3,0v25A1.5,1.5,0,0,1,27,41Z"/><path class="b" d="M27,14.5v0h0m0-3a3,3,0,0,0-3,3v25a3,3,0,0,0,6,0v-25a3,3,0,0,0-3-3Z"/><path class="a" d="M14.5,28.5a1.5,1.5,0,0,1,0-3h25a1.5,1.5,0,0,1,0,3Z"/><path class="b" d="M39.5,24h-25a3,3,0,0,0,0,6h25a3,3,0,0,0,0-6Z"/></svg>