<svg xmlns="http://www.w3.org/2000/svg" viewBox="0 0 50.14 47.07"><defs><style>.a{fill:#636363;}</style></defs><title>radio</title><path class="a" d="M47,47.07H3.2A3.2,3.2,0,0,1,0,43.87V19.6a3.2,3.2,0,0,1,3.2-3.2H47a3.19,3.19,0,0,1,3.19,3.2V43.87A3.2,3.2,0,0,1,47,47.07ZM3.2,18.4A1.2,1.2,0,0,0,2,19.6V43.87a1.2,1.2,0,0,0,1.2,1.2H47a1.19,1.19,0,0,0,1.19-1.2V19.6A1.19,1.19,0,0,0,47,18.4Z"/><path class="a" d="M44.7,25H5.44a1,1,0,0,1-1-1V21.06a1,1,0,0,1,1-1H44.7a1,1,0,0,1,1,1V24A1,1,0,0,1,44.7,25ZM6.44,23H43.7v-.92H6.44Z"/><path class="a" d="M12.79,41.5a1,1,0,0,1-1-1V29.42a1,1,0,0,1,2,0V40.5A1,1,0,0,1,12.79,41.5Z"/><path class="a" d="M15.29,40.24a1,1,0,0,1-1-1V30.68a1,1,0,0,1,2,0v8.56A1,1,0,0,1,15.29,40.24Z"/><path class="a" d="M17.79,38.7a1,1,0,0,1-1-1V32.22a1,1,0,0,1,2,0V37.7A1,1,0,0,1,17.79,38.7Z"/><path class="a" d="M10.29,40.24a1,1,0,0,1-1-1V30.68a1,1,0,0,1,2,0v8.56A1,1,0,0,1,10.29,40.24Z"/><path class="a" d="M7.79,38.7a1,1,0,0,1-1-1V32.22a1,1,0,0,1,2,0V37.7A1,1,0,0,1,7.79,38.7Z"/><path class="a" d="M12.79,44.46A9.51,9.51,0,1,1,22.3,35,9.51,9.51,0,0,1,12.79,44.46Zm0-17A7.51,7.51,0,1,0,20.3,35,7.51,7.51,0,0,0,12.79,27.45Z"/><path class="a" d="M41,44.46a4.59,4.59,0,1,1,4.58-4.58A4.59,4.59,0,0,1,41,44.46Zm0-7.17a2.59,2.59,0,1,0,2.58,2.59A2.59,2.59,0,0,0,41,37.29Z"/><rect class="a" x="29.19" y="30.73" width="11.76" height="2"/><rect class="a" x="41.96" y="30.73" width="2.7" height="2"/><path class="a" d="M11.58,17.17h-2V15.64H6v1.53H4V15.28a1.71,1.71,0,0,1,1.75-1.64H9.84a1.7,1.7,0,0,1,1.74,1.64Z"/><rect class="a" x="6.43" y="7.94" width="25.3" height="2" transform="translate(-1.98 9.57) rotate(-26.81)"/><path class="a" d="M31.56,5.23a2.62,2.62,0,1,1,2.62-2.61A2.61,2.61,0,0,1,31.56,5.23Zm0-3.23a.61.61,0,0,0-.61.62.61.61,0,0,0,.61.61.61.61,0,0,0,.62-.61A.62.62,0,0,0,31.56,2Z"/></svg>