<svg xmlns="http://www.w3.org/2000/svg" viewBox="0 0 60.04 58.94"><defs><style>.a{fill:#636363;}</style></defs><title>satellite</title><path class="a" d="M25.34,41.45a1,1,0,0,1-.87-.5c-1-1.75-.47-4.18,1.52-6.84a27.12,27.12,0,0,1,8-6.76c7.45-4.3,14.57-4.94,16.56-1.48a1,1,0,0,1-.36,1.37,1,1,0,0,1-1.37-.37c-1.18-2.05-7.15-1.64-13.83,2.21a25,25,0,0,0-7.44,6.24c-1.44,1.91-2,3.64-1.39,4.63a1,1,0,0,1-.36,1.37A1,1,0,0,1,25.34,41.45Z"/><path class="a" d="M29.52,41a6.21,6.21,0,0,1-2.09-.32,1,1,0,0,1-.64-1.11c.46-2.73,4-6.35,9-9.22h0c5-2.87,9.87-4.11,12.46-3.14a1,1,0,0,1,.64,1.1c-.46,2.73-4,6.35-9,9.23C36,39.72,32.24,41,29.52,41Zm-.44-2c2.06.14,5.71-.82,9.81-3.19s6.76-5.06,7.66-6.9c-2-.13-5.71.82-9.81,3.18h0C32.64,34.41,30,37.1,29.08,39Z"/><path class="a" d="M42.2,44.77a3.12,3.12,0,0,1-.85-.12,3.24,3.24,0,0,1-2-1.52A3.28,3.28,0,0,1,39,40.64a3.22,3.22,0,0,1,1.52-2,3.27,3.27,0,1,1,1.64,6.11Zm0-4.55a1.3,1.3,0,0,0-.64.17,1.27,1.27,0,0,0,.31,2.33,1.24,1.24,0,0,0,1-.13,1.25,1.25,0,0,0,.6-.77,1.28,1.28,0,0,0-.13-1,1.23,1.23,0,0,0-1.1-.64Z"/><path class="a" d="M40.86,40.17a1,1,0,0,1-.87-.5l-2.91-5a1,1,0,0,1,.37-1.36,1,1,0,0,1,1.36.36l2.91,5A1,1,0,0,1,41.36,40,1,1,0,0,1,40.86,40.17Z"/><path class="a" d="M28.76,30a1,1,0,0,1-.87-.5L21,17.61a1,1,0,0,1,.37-1.37l9.32-5.37a1,1,0,0,1,1.36.36l6.85,11.86a1,1,0,0,1-.37,1.36,1,1,0,0,1-1.37-.36l-6.34-11-7.58,4.38,6.34,11a1,1,0,0,1-.36,1.36A1,1,0,0,1,28.76,30Z"/><path class="a" d="M20.62,15.87a1,1,0,0,1-.58-.18l-2.18-1.54a1,1,0,0,1,.08-1.68L29.19,6a1,1,0,0,1,1.5.77l.24,2.67A1,1,0,0,1,30,10.49a1,1,0,0,1-1.08-.9l-.1-1.11-8.55,4.94.91.64a1,1,0,0,1-.58,1.81Z"/><path class="a" d="M5.58,40.8l-.26,0a1,1,0,0,1-.6-.47L.13,32.36A1,1,0,0,1,.5,31L19.88,19.81a1,1,0,0,1,1.37.37l4.58,7.93a1,1,0,0,1-.37,1.37L6.08,40.67A1,1,0,0,1,5.58,40.8ZM2.37,32.23,6,38.43,23.6,28.25,20,22Z"/><path class="a" d="M10.32,37.58a1,1,0,0,1-.87-.5L5.29,29.87a1,1,0,0,1,1.73-1l4.16,7.21a1,1,0,0,1-.36,1.37A1,1,0,0,1,10.32,37.58Z"/><path class="a" d="M15.06,34.84a1,1,0,0,1-.86-.5L10,27.14a1,1,0,1,1,1.74-1l4.16,7.2a1,1,0,0,1-.87,1.5Z"/><path class="a" d="M19.81,32.1a1,1,0,0,1-.87-.5l-4.16-7.2A1,1,0,0,1,15.15,23a1,1,0,0,1,1.36.37l4.16,7.2a1,1,0,0,1-.86,1.5Z"/><path class="a" d="M39.66,21.13a1.17,1.17,0,0,1-.26,0,1,1,0,0,1-.61-.46l-4.58-7.94a1,1,0,0,1,.37-1.37L54,.13A1,1,0,0,1,55.32.5l4.59,7.94a1.05,1.05,0,0,1,.1.76,1,1,0,0,1-.47.6L40.16,21A1,1,0,0,1,39.66,21.13Zm-3.21-8.57L40,18.76,57.67,8.57l-3.58-6.2Z"/><path class="a" d="M44.4,17.91a1,1,0,0,1-.87-.5L39.37,10.2a1,1,0,1,1,1.73-1l4.16,7.21a1,1,0,0,1-.36,1.36A1,1,0,0,1,44.4,17.91Z"/><path class="a" d="M49.14,15.17a1,1,0,0,1-.87-.5L44.11,7.46a1,1,0,0,1,1.74-1L50,13.67A1,1,0,0,1,49.64,15,1,1,0,0,1,49.14,15.17Z"/><path class="a" d="M53.89,12.43a1,1,0,0,1-.87-.5L48.86,4.72a1,1,0,1,1,1.73-1l4.16,7.21a1,1,0,0,1-.86,1.5Z"/><path class="a" d="M42.8,50.62a8.11,8.11,0,0,1-4.2-1.18,1,1,0,0,1-.33-1.37,1,1,0,0,1,1.37-.34,6.08,6.08,0,0,0,9.24-5.33,1,1,0,0,1,2,0,8.1,8.1,0,0,1-8.08,8.27Z"/><path class="a" d="M44.39,58.94a13.63,13.63,0,0,1-7.08-2,1,1,0,1,1,1-1.71A11.66,11.66,0,0,0,56,45a1,1,0,0,1,1-1h0a1,1,0,0,1,1,1A13.66,13.66,0,0,1,44.39,58.94Z"/></svg>