<svg xmlns="http://www.w3.org/2000/svg" viewBox="0 0 357.35 12.53"><defs><style>.a{fill:#a53b2d;}</style></defs><title>Asset 9</title><path class="a" d="M.76,13.4l.9-1a4.62,4.62,0,0,0,3.26,1.46c1.55,0,2.47-.77,2.47-1.92s-.86-1.59-2-2.08l-1.7-.74A3.33,3.33,0,0,1,1.33,6c0-1.8,1.57-3.13,3.72-3.13A4.87,4.87,0,0,1,8.53,4.37l-.8,1A3.76,3.76,0,0,0,5.05,4.23C3.72,4.23,2.84,4.9,2.84,6s1,1.57,2,2l1.68.73c1.37.59,2.44,1.4,2.44,3.16s-1.54,3.36-4,3.36A5.64,5.64,0,0,1,.76,13.4Z" transform="translate(-0.76 -2.91)"/><path class="a" d="M11.68,3.12h6.81V4.4H13.18V8.1h4.48V9.37H13.18v4.3h5.49v1.27h-7Z" transform="translate(-0.76 -2.91)"/><path class="a" d="M21.61,3.12h1.51V13.67h5.15v1.27H21.61Z" transform="translate(-0.76 -2.91)"/><path class="a" d="M30.81,3.12h6.81V4.4H32.31V8.1h4.48V9.37H32.31v4.3H37.8v1.27h-7Z" transform="translate(-0.76 -2.91)"/><path class="a" d="M40.06,9c0-3.81,2.25-6.13,5.24-6.13a4.39,4.39,0,0,1,3.25,1.45l-.82,1a3.21,3.21,0,0,0-2.4-1.11c-2.23,0-3.72,1.83-3.72,4.77s1.42,4.83,3.66,4.83A3.55,3.55,0,0,0,48,12.51l.82.94a4.53,4.53,0,0,1-3.62,1.71C42.27,15.16,40.06,12.88,40.06,9Z" transform="translate(-0.76 -2.91)"/><path class="a" d="M53.61,4.4H50V3.12h8.65V4.4H55.11V14.94h-1.5Z" transform="translate(-0.76 -2.91)"/><path class="a" d="M64.44,13.4l.9-1a4.62,4.62,0,0,0,3.26,1.46c1.55,0,2.47-.77,2.47-1.92s-.85-1.59-2-2.08l-1.7-.74A3.33,3.33,0,0,1,65,6c0-1.8,1.57-3.13,3.72-3.13a4.87,4.87,0,0,1,3.48,1.46l-.8,1a3.74,3.74,0,0,0-2.68-1.11c-1.32,0-2.2.67-2.2,1.72s1,1.57,2,2l1.69.73c1.37.59,2.43,1.4,2.43,3.16s-1.54,3.36-4,3.36A5.67,5.67,0,0,1,64.44,13.4Z" transform="translate(-0.76 -2.91)"/><path class="a" d="M75.31,10.06V3.12h1.5v7c0,2.84,1.21,3.73,2.75,3.73s2.8-.89,2.8-3.73v-7H83.8v6.94c0,3.79-1.83,5.1-4.24,5.1S75.31,13.85,75.31,10.06Z" transform="translate(-0.76 -2.91)"/><path class="a" d="M87.42,3.12h3.51c2.4,0,4.06.82,4.06,2.9a2.59,2.59,0,0,1-1.72,2.56v.08a2.72,2.72,0,0,1,2.4,2.82c0,2.32-1.84,3.46-4.47,3.46H87.42Zm3.25,5c2,0,2.85-.74,2.85-1.94,0-1.38-1-1.89-2.78-1.89H88.92V8.15Zm.31,5.6c2,0,3.21-.73,3.21-2.32S93.05,9.31,91,9.31H88.92v4.44Z" transform="translate(-0.76 -2.91)"/><path class="a" d="M97.12,13.27l1.06-.76a2.24,2.24,0,0,0,2,1.32c1.26,0,1.89-.71,1.89-2.51V3.12h1.5v8.34c0,2-.94,3.7-3.26,3.7A3.46,3.46,0,0,1,97.12,13.27Z" transform="translate(-0.76 -2.91)"/><path class="a" d="M107.26,3.12h6.81V4.4h-5.31V8.1h4.48V9.37h-4.48v4.3h5.49v1.27h-7Z" transform="translate(-0.76 -2.91)"/><path class="a" d="M116.51,9c0-3.81,2.24-6.13,5.24-6.13A4.4,4.4,0,0,1,125,4.36l-.82,1a3.25,3.25,0,0,0-2.4-1.11c-2.24,0-3.72,1.83-3.72,4.77s1.42,4.83,3.66,4.83a3.56,3.56,0,0,0,2.74-1.32l.82.94a4.53,4.53,0,0,1-3.62,1.71C118.71,15.16,116.51,12.88,116.51,9Z" transform="translate(-0.76 -2.91)"/><path class="a" d="M130.06,4.4h-3.58V3.12h8.66V4.4h-3.58V14.94h-1.5Z" transform="translate(-0.76 -2.91)"/><polygon class="a" points="350.42 12.53 357.35 0.53 343.49 0.53 350.42 12.53"/></svg>