<svg xmlns="http://www.w3.org/2000/svg" viewBox="0 0 26.03 57.58"><defs><style>.a{fill:#636363;}</style></defs><title>tower</title><path class="a" d="M22.78,57.58H3.25a1,1,0,0,1-.75-.34,1,1,0,0,1-.24-.79l5.6-41.28a1,1,0,0,1,1-.86h8.33a1,1,0,0,1,1,.86l5.6,41.28a1,1,0,0,1-.24.79A1,1,0,0,1,22.78,57.58Zm-18.38-2H21.63L16.31,16.31H9.72Z"/><path class="a" d="M21,47.76H5.08A1,1,0,0,1,4.43,46l7.06-6.12L6.08,35.19a1,1,0,1,1,1.31-1.51L13,38.56l5.63-4.88a1,1,0,0,1,1.41.1,1,1,0,0,1-.1,1.41l-5.42,4.69L21.6,46a1,1,0,0,1,.28,1.11A1,1,0,0,1,21,47.76Zm-13.19-2H18.27L13,41.2Z"/><path class="a" d="M19.3,35.43H6.73a1,1,0,0,1-.92-.61A1,1,0,0,1,6,33.74L11.62,28,7.36,23.56a1,1,0,0,1,.72-1.7H18a1,1,0,0,1,.72,1.7L14.41,28,20,33.74a1,1,0,0,1,.2,1.08A1,1,0,0,1,19.3,35.43Zm-10.21-2h7.85l-3.92-4Zm1.35-9.57L13,26.52l2.57-2.66Z"/><path class="a" d="M21.45,56.86a1,1,0,0,1-.48-.12L4.1,47.58a1,1,0,1,1,1-1.76L21.93,55a1,1,0,0,1-.48,1.88Z"/><path class="a" d="M4.58,56.86A1,1,0,0,1,4.1,55L21,45.82a1,1,0,0,1,1,1.76L5.06,56.74A1,1,0,0,1,4.58,56.86Z"/><path class="a" d="M18.1,13.89H7.93a1,1,0,0,1,0-2H18.1a1,1,0,0,1,0,2Z"/><path class="a" d="M13,9.63a3.3,3.3,0,1,1,3.29-3.29A3.3,3.3,0,0,1,13,9.63ZM13,5a1.3,1.3,0,1,0,1.29,1.3A1.3,1.3,0,0,0,13,5Z"/><path class="a" d="M13,13.56a1,1,0,0,1-1-1V9.46a1,1,0,0,1,2,0v3.1A1,1,0,0,1,13,13.56Z"/><path class="a" d="M6.5,10.6a1,1,0,0,1-.81-.41,6.24,6.24,0,0,1,0-7.33,1,1,0,0,1,1.39-.22A1,1,0,0,1,7.3,4a4.15,4.15,0,0,0-.8,2.48A4.16,4.16,0,0,0,7.3,9a1,1,0,0,1-.22,1.4A1,1,0,0,1,6.5,10.6Z"/><path class="a" d="M2.8,13.05A1,1,0,0,1,2,12.64,10.39,10.39,0,0,1,2,.41,1,1,0,0,1,3.39.19a1,1,0,0,1,.22,1.4A8.26,8.26,0,0,0,2,6.52a8.27,8.27,0,0,0,1.61,4.94,1,1,0,0,1-.81,1.59Z"/><path class="a" d="M19.54,10.6a1,1,0,0,1-.59-.19A1,1,0,0,1,18.73,9a4.21,4.21,0,0,0,.81-2.49A4.16,4.16,0,0,0,18.73,4,1,1,0,0,1,19,2.64a1,1,0,0,1,1.39.22,6.2,6.2,0,0,1,0,7.33A1,1,0,0,1,19.54,10.6Z"/><path class="a" d="M23.23,13.05a1,1,0,0,1-.58-.19,1,1,0,0,1-.22-1.4,8.41,8.41,0,0,0,0-9.87A1,1,0,1,1,24,.41a10.39,10.39,0,0,1,0,12.23A1,1,0,0,1,23.23,13.05Z"/></svg>